<svg xmlns="http://www.w3.org/2000/svg" viewBox="0 0 293.02 73.95" width="293.03" height="73.938"><defs><style>.cls-1{fill:#fff;fill-rule:evenodd;}</style></defs><title>Logo</title><g id="Layer_2" data-name="Layer 2"><g id="Layer_1-2" data-name="Layer 1"><path class="cls-1" d="M257.91,67.15c-13.18,0-25.85,1-34.91,2.9,1.85-9.06,2.9-21.74,2.9-34.93S224.85,9.27,223,.2c9.06,1.84,21.73,2.9,34.91,2.9S283.77,2,292.82.2c-1.84,9.06-2.9,21.73-2.9,34.92S291,61,292.82,70.05C283.77,68.2,271.09,67.15,257.91,67.15Zm-11.59-49.9a.53.53,0,0,0-.1.43v.16h-.15a1.13,1.13,0,0,0-.91,1.3v.11l-.09,0s-.81.48-.94,1.08a.63.63,0,0,0,.06.5,4.58,4.58,0,0,0,.67.05,1.57,1.57,0,0,0,1.13-.29l0,0h0a5.48,5.48,0,0,0,1.84-1l.08-.06.08.05a1.42,1.42,0,0,0,.67.16,1.87,1.87,0,0,0,1.24-.53l.11-.09.09.11a.62.62,0,0,0,.27.17l.14,0,.15,0h0a2,2,0,0,0,1.11-.43l.15-.11.07.18s.22.52,1.28.52a3.12,3.12,0,0,0,.52,0,25,25,0,0,1,2.74-.85l.39-.07h0a11.87,11.87,0,0,0-1.19-.4c-.64-.18-1.19-.3-1.19-.3l0,0c-1-.49-1.24-1.05-1.28-1.34a1.86,1.86,0,0,1-.95-.23l-.06,0a4.45,4.45,0,0,0-1.3-.28.66.66,0,0,0-.51.17.47.47,0,0,0-.07.34l0,.25-.22-.09a5.18,5.18,0,0,0-1.59-.4.5.5,0,0,0-.4.12.46.46,0,0,0,0,.32l.07.24-.22,0a4.61,4.61,0,0,0-.65,0A1.44,1.44,0,0,0,246.32,17.25Zm4.52,9.54a1,1,0,0,0,.26,1.34l.07.05v.11a2.07,2.07,0,0,0,.12,1.24.44.44,0,0,0,.31.22c.36-.37.87-1,.82-1.38v-.08a5.54,5.54,0,0,0,.42-1.85v-.11l.08,0a1.63,1.63,0,0,0,.82-1.54v-.15h.14s.65,0,.79-1.3l0-.19.16.06s.55.17,1.26-1a19.1,19.1,0,0,1,1.12-2.65A27,27,0,0,0,254.73,22l0,0a2.64,2.64,0,0,1-1.41.59.85.85,0,0,1-.55-.19,5.47,5.47,0,0,1-.38.52l.06.06.2.14-.21.13c-.51.31-1.26.9-1.25,1.2,0,.08.07.14.18.19l.21.11-.17.16c-.23.21-.82.88-.79,1.34a.44.44,0,0,0,.2.32l.12.08Zm12.56,1.58c0,.36.46,1,.82,1.38a.49.49,0,0,0,.32-.22,2,2,0,0,0,.12-1.24l0-.11.08-.05a1,1,0,0,0,.27-1.34l-.08-.14.12-.08a.47.47,0,0,0,.2-.32c0-.46-.56-1.13-.79-1.34l-.17-.16.2-.11c.11-.05.17-.11.17-.19,0-.3-.71-.89-1.24-1.2l-.21-.13.2-.14.07-.06a3.34,3.34,0,0,1-.38-.52.85.85,0,0,1-.55.19A2.66,2.66,0,0,1,261.1,22l0,0a25.15,25.15,0,0,0-2.5-2.45,20.5,20.5,0,0,1,1.12,2.65c.72,1.19,1.25,1,1.25,1l.16-.05,0,.18c.15,1.26.76,1.3.79,1.3h.13v.15a1.61,1.61,0,0,0,.81,1.54l.09,0v.1a5.32,5.32,0,0,0,.41,1.85v.08Zm5.81-2.94a1.82,1.82,0,0,0-.54-2l-.09-.06,0-.13a1,1,0,0,0-.06-.7,2.83,2.83,0,0,0-1.47-1.05l-.17-.05.08-.17a.52.52,0,0,0,0-.51c-.26-.46-1.4-.56-1.81-.56H265l.07-.22a1.43,1.43,0,0,0,0-.22l-.09,0a2.18,2.18,0,0,1-1.15-.41,1.68,1.68,0,0,1-1.46.56,4,4,0,0,1-.57-.05h0a17.72,17.72,0,0,0-3.28-.94l-.21,0,0,0,.27.18.42.33a25.66,25.66,0,0,1,2.29,2.29,2.33,2.33,0,0,0,1.25.53.54.54,0,0,0,.46-.2l0-.09.08-.11.11.2a3.67,3.67,0,0,0,.47.66,1.67,1.67,0,0,0,.12.13.94.94,0,0,0,.65.33.46.46,0,0,0,.23-.05l.13-.11.09.16c.57,1.2,1.25,1.34,1.53,1.34h.08l.11,0,0,.1a8.32,8.32,0,0,0,1.45,2l0,0,0,0c.19.55,1.1,1,1.53,1.13.56-.75-.45-2.24-.45-2.26l0-.07Zm-6.68,16.7h-3.87l.73-3.63-.65-.64.85-3.3-.66-.32.86-3.6-.79-.57.7-3.08-.79-.43.49-2.73-.66-.43.1-2.95A3.33,3.33,0,0,0,257.9,19a3.46,3.46,0,0,0-.93,1.46v0l.11,2.95-.66.43.49,2.73-.78.43.69,3.08-.79.57.88,3.6-.67.32.83,3.3-.65.64.84,3.65h-4s-.52.22-.34.6a10.46,10.46,0,0,0,2.36,2.32c.16-.1.16-.87.28-1s.67.8,1,1c0,0,.65-.47,1.25-.85a5.13,5.13,0,0,1,1,.85c.39-.21,1.25-1.13,1.32-1s.11.92.27,1a10,10,0,0,0,2.37-2.31C263,42.36,262.53,42.13,262.53,42.13ZM250.92,23.19,251,23l.15.11a.35.35,0,0,0,.22.06.94.94,0,0,0,.64-.33l.13-.13a4.29,4.29,0,0,0,.46-.66l.12-.21.07.13.05.08a.54.54,0,0,0,.46.2,2.3,2.3,0,0,0,1.24-.53,26.28,26.28,0,0,1,2.3-2.29l.42-.33.26-.18s0,0,0,0l-.22,0a17.46,17.46,0,0,0-3.28.94h0c-.21,0-.4,0-.58,0a1.67,1.67,0,0,1-1.46-.56,2.1,2.1,0,0,1-1.15.4h-.08a.78.78,0,0,0,0,.22l.07.22h-.21c-.42,0-1.55.1-1.82.56a.58.58,0,0,0,0,.51l.07.17-.15.05a2.77,2.77,0,0,0-1.48,1.05.94.94,0,0,0,0,.7l0,.13-.09.06a1.81,1.81,0,0,0-.55,2v.07l0,.06s-1,1.51-.46,2.26c.43-.15,1.34-.58,1.54-1.13l0,0,0,0a8.45,8.45,0,0,0,1.44-2l0-.1.11,0h.08C249.66,24.53,250.35,24.39,250.92,23.19Zm-.68-10.84a.37.37,0,0,0-.38.27l-.06.15-.14-.07a.82.82,0,0,0-.35-.08.91.91,0,0,0-.81.59l0,.09h-.16a1.53,1.53,0,0,0-1.05.33.57.57,0,0,0-.14.36,2.93,2.93,0,0,0,1.29.68h.09l0,0,0,0a4.37,4.37,0,0,0,1.25.18c.17,0,.33,0,.5,0l.09,0,0,.09a1.37,1.37,0,0,0,1.23.65,1.46,1.46,0,0,0,.29,0l.14,0,0,.15a.63.63,0,0,0,.2.34l.13.1a1.13,1.13,0,0,0,.33.15l.14,0a2.47,2.47,0,0,0,.5,0h.18v0l0,.14v0c0,.09,0,.64,1.12,1.17a17.68,17.68,0,0,1,2.08.59,7.39,7.39,0,0,1,.78.32v0s0,0,0,0a3,3,0,0,0-.34-.38,16.34,16.34,0,0,0-1.42-1.3l0,0a1.94,1.94,0,0,1-.55-1.55,1.31,1.31,0,0,1-.83-1.14,1.63,1.63,0,0,1-.7-.51h0c-.08,0-.17,0-.25.21l-.1.24-.14-.2c-.32-.45-.94-1.16-1.26-1.16,0,0-.12,0-.17.22l-.08.25-.16-.16A2.57,2.57,0,0,0,250.24,12.35Zm6,.8-.19.17,0-.25c-.13-.67-.42-1.38-.62-1.38,0,0-.09,0-.14.11l-.15.18-.1-.22c-.11-.26-.5-1-.86-1a.3.3,0,0,0-.2.09l-.12.11-.09-.12a.75.75,0,0,0-.54-.27.76.76,0,0,0-.49.2l-.07.06-.09-.05a1.79,1.79,0,0,0-.72-.22.43.43,0,0,0-.44.25c.19.38.55,1,.82,1l0,0,0,0a4.25,4.25,0,0,0,1.3.8l.08,0v.11a1.18,1.18,0,0,0,.19.52,1.49,1.49,0,0,0,.75.54l0,0,.09,0V14l0,.09a.29.29,0,0,0,0,.1.73.73,0,0,0,.24.52,1.86,1.86,0,0,0,.53.37l.13.05,0,0,0,0-.08.14s-.24.44.46,1.32c.09.07.58.48,1.08.95l.34.35a3.08,3.08,0,0,1,.3.33s0-.12-.06-.19c-.36-1.24-1-3.51-1.25-5A.22.22,0,0,0,256.22,13.15Zm3-1.16h-.11l0-.17A4.5,4.5,0,0,0,259,9.55c-.06-.05-.09-.06-.12-.06a.26.26,0,0,0-.1,0l-.17.1,0-.21a3.65,3.65,0,0,0-.67-1.59,3.81,3.81,0,0,0-.66,1.59l0,.21-.16-.1a.37.37,0,0,0-.11,0,.12.12,0,0,0-.1.06,4.22,4.22,0,0,0-.2,2.27l0,.17h-.11a3.1,3.1,0,0,0,.08.84,2,2,0,0,0,0,.24c0,.12,0,.26.08.4.22,1,.59,2.47,1,3.92a.29.29,0,0,1,0,.09c.05.14.09.28.13.43a.07.07,0,0,1,0,.05s0,0,0-.05a3,3,0,0,1,.12-.43.29.29,0,0,1,0-.09c.42-1.45.77-2.88,1-3.92,0-.14.06-.28.09-.4a2,2,0,0,1,0-.24A2.6,2.6,0,0,0,259.27,12ZM264,10.55a1.67,1.67,0,0,0-.72.22l-.09.05-.07-.06a.79.79,0,0,0-.51-.2.71.71,0,0,0-.52.27L262,11l-.12-.1a.29.29,0,0,0-.21-.1c-.36,0-.75.75-.87,1l-.08.22-.16-.19c0-.07-.1-.1-.13-.1-.2,0-.49.72-.62,1.38l-.06.25-.17-.17a.27.27,0,0,0-.16-.08c-.26,1.45-.89,3.72-1.27,5a.53.53,0,0,1-.05.18c.1-.12.2-.22.31-.33l.34-.34c.49-.48,1-.89,1.08-1,.7-.88.46-1.32.46-1.32l-.08-.15h0l0,0,.13-.05a2,2,0,0,0,.53-.37.77.77,0,0,0,.24-.53v-.08l0-.1,0-.05.1,0,0,0a1.46,1.46,0,0,0,.74-.54,1.21,1.21,0,0,0,.2-.52v-.11l.1,0a4,4,0,0,0,1.27-.79l0,0,0,0c.27-.05.62-.63.82-1A.45.45,0,0,0,264,10.55Zm4.53,3.08a1.54,1.54,0,0,0-1-.33h-.16l-.05-.09a.91.91,0,0,0-.8-.59.83.83,0,0,0-.36.08l-.13.07-.06-.15a.38.38,0,0,0-.38-.27,2.43,2.43,0,0,0-1.22.65l-.18.15-.05-.24c-.06-.22-.15-.22-.18-.22-.32,0-.95.71-1.26,1.16l-.16.2-.09-.24c-.08-.18-.17-.21-.25-.21h0a1.63,1.63,0,0,1-.7.51c0,.25-.08.75-.83,1.14.07.25.07.78-.55,1.55l0,0a15.76,15.76,0,0,0-1.43,1.3,4,4,0,0,0-.34.38s0,0,0,0v0a7.17,7.17,0,0,1,.77-.32,17.63,17.63,0,0,1,2.09-.59c1.07-.52,1.11-1.08,1.11-1.17v0l0-.14v0h.18a1.87,1.87,0,0,0,.49,0l.13,0a1.52,1.52,0,0,0,.34-.15l.13-.1a.63.63,0,0,0,.2-.34l0-.15.14,0a1.56,1.56,0,0,0,.3,0,1.37,1.37,0,0,0,1.22-.65l.05-.09.09,0,.5,0a4.34,4.34,0,0,0,1.24-.18l0,0,.05,0h.09A2.79,2.79,0,0,0,268.7,14,.57.57,0,0,0,268.56,13.63Zm2.15,5.67-.07,0v-.11a1.12,1.12,0,0,0-.91-1.3h-.16l0-.16a.53.53,0,0,0-.1-.43,1.4,1.4,0,0,0-1.1-.33,4.21,4.21,0,0,0-.64,0l-.23,0,.06-.24a.41.41,0,0,0,0-.32c-.05-.08-.2-.12-.4-.12a5.37,5.37,0,0,0-1.59.4l-.22.09,0-.25a.39.39,0,0,0-.08-.34.6.6,0,0,0-.5-.17,4.35,4.35,0,0,0-1.29.28l-.06,0a1.92,1.92,0,0,1-.95.23c0,.29-.27.85-1.29,1.34l0,0s-.55.12-1.2.3c-.39.11-.81.25-1.19.4h0l.39.07a23.84,23.84,0,0,1,2.73.85,3.37,3.37,0,0,0,.52,0c1.06,0,1.28-.52,1.28-.52l.07-.17.15.1a2,2,0,0,0,1.11.43h0l.16,0,.14,0a.73.73,0,0,0,.26-.17l.1-.11.1.09a1.92,1.92,0,0,0,1.25.53,1.36,1.36,0,0,0,.66-.16l.09-.05.08.06a5.48,5.48,0,0,0,1.83,1h0l0,0a1.55,1.55,0,0,0,1.13.29,4.42,4.42,0,0,0,.66-.05.68.68,0,0,0,.07-.5C271.53,19.78,270.73,19.31,270.71,19.3ZM268.93,44a70.67,70.67,0,0,0-11,7.83,71.7,71.7,0,0,0-11-7.83c-2.8-1.57-8.9-3.34-13.76-1.52,0,0,6.47-.55,15.06,5.16A83,83,0,0,1,256,53.59c-1.28,1.18-2.58,2.46-3.88,3.84l-.12-.12a.19.19,0,0,0-.27,0,.21.21,0,0,0-.05.17.7.7,0,0,1-.19-.27.82.82,0,0,0-.25-.92.78.78,0,0,0-1.12,0,.79.79,0,0,0,.12,1.12.87.87,0,0,0,.77.21.62.62,0,0,1,.06.55,3.61,3.61,0,0,1-3,1.43,3.18,3.18,0,0,1-2.41-1.2,1.27,1.27,0,0,0-1.94,0c-1.45,2.07,1.48,4,3.56,4a8,8,0,0,0,5.39-2.2c.22-.25.38-.35.57-.26s.18.23.22.4a.83.83,0,0,0,.3.75.76.76,0,1,0,1-1.13.86.86,0,0,0-.63-.23l-.09,0a.19.19,0,0,0,.09,0,.18.18,0,0,0,0-.27l-.29-.28-1.39-1.37,1.39,1.37c.52-.52,2-2,4.1-3.83,2.07,1.85,3.57,3.31,4.09,3.83l-.29.28a.2.2,0,0,0,0,.27.26.26,0,0,0,.09,0l-.08,0a.83.83,0,0,0-.63.23A.79.79,0,0,0,261,61.1a.81.81,0,0,0,1.13,0,.91.91,0,0,0,.3-.75c0-.17.1-.35.21-.4s.35,0,.56.26a8.06,8.06,0,0,0,5.41,2.2c2.07,0,5-1.93,3.56-4a1.27,1.27,0,0,0-1.94,0,3.21,3.21,0,0,1-2.41,1.2,3.64,3.64,0,0,1-3-1.43.68.68,0,0,1,.07-.55.85.85,0,0,0,.76-.21.81.81,0,0,0,.13-1.12.79.79,0,0,0-1.13,0,.84.84,0,0,0-.25.92.7.7,0,0,1-.19.27.18.18,0,0,0-.05-.17.19.19,0,0,0-.27,0l-.12.12q-2-2.07-3.87-3.84a85.75,85.75,0,0,1,7.73-5.93c8.6-5.71,15.07-5.16,15.07-5.16C277.81,40.68,271.7,42.45,268.93,44ZM222,70.53l-.14.67L219.1,74c1.86-8.78,3-21.44,3-35.5S221,11.73,219.1,3L222,0c1.89,9,3,21.81,3,35.12S223.91,61.48,222,70.53ZM208.21,53.81a2.27,2.27,0,0,1-.59-.07,1.43,1.43,0,0,1-.5-.23,1.06,1.06,0,0,1-.34-.41,1.46,1.46,0,0,1-.13-.62V48.17h-1v-1h1V45.27h1.51v1.88h1v1h-1v4a.74.74,0,0,0,.12.49.38.38,0,0,0,.3.13l.23,0,.48-.09v1a5.05,5.05,0,0,1-.56.12A3.28,3.28,0,0,1,208.21,53.81Zm-1.72-14.44a3,3,0,0,1-2.28,1.07,22.73,22.73,0,0,1-2.69-.44c-1.44-.32-2.17-.6-2.17-.84s.09-.2.28-.2a5.43,5.43,0,0,1,1.25.22,6,6,0,0,0,1.29.21,2.37,2.37,0,0,0,.83-.13,10.1,10.1,0,0,0,3.54-2.33,4.79,4.79,0,0,0,1.82-3.3,3.58,3.58,0,0,0-.16-1.18,3.63,3.63,0,0,1-1.28,1.75,2.56,2.56,0,0,1-1.34.15,1.44,1.44,0,0,1-1.19-.9,3.58,3.58,0,0,1-.34-1.53,5.52,5.52,0,0,1,1-2.61c.73-1.18,1.38-1.77,1.94-1.77.38,0,.83.5,1.33,1.48a6.59,6.59,0,0,1,.82,3.16,11.45,11.45,0,0,1-1.13,5A7.65,7.65,0,0,1,206.49,39.37Zm.86-8.75a1.32,1.32,0,0,0-1-.8,1.38,1.38,0,0,0-1,.56,1.51,1.51,0,0,0-.55,1c0,.31.25.55.71.72a2.82,2.82,0,0,0,1.06.21,1.46,1.46,0,0,0,1.18-.37A2.77,2.77,0,0,0,207.35,30.62Zm-12.15,9.8a9.46,9.46,0,0,1-2.74-.73q-2.07-.78-2.07-1.29a.14.14,0,0,1,.16-.16,9.45,9.45,0,0,1,1.21.46,5,5,0,0,0,1.8.46c1,0,2.2-.68,3.59-2s2.1-2.51,2.1-3.5c0-.71-.85-1.69-2.56-2.92.1-.42.27-1.19.51-2.32a8.1,8.1,0,0,1,1.92,2A6.77,6.77,0,0,1,200,33.9a7.76,7.76,0,0,1-1.64,4.37C197.33,39.7,196.29,40.42,195.2,40.42Zm-.73-15.85.94-1.53,2.15,1.28-.92,1.56ZM188,23.33q-.09-.79,1.44-3.33c.08.13.21,2.2.41,6.19l.26,6.12a10.3,10.3,0,0,1-.91,3.3Q188.73,30.53,188,23.33ZM189,47a2.67,2.67,0,0,1,.91.15,2.21,2.21,0,0,1,.71.43,1.87,1.87,0,0,1,.47.64,1.94,1.94,0,0,1,.17.8v4.63h-1.48V49.31a1.72,1.72,0,0,0-.09-.6,1.17,1.17,0,0,0-.23-.38.87.87,0,0,0-.31-.2,1.07,1.07,0,0,0-.35-.06,1,1,0,0,0-.48.13,1.31,1.31,0,0,0-.44.34,1.48,1.48,0,0,0-.32.51,1.49,1.49,0,0,0-.12.64v4h-1.5V49.31a1.74,1.74,0,0,0-.08-.6,1.15,1.15,0,0,0-.22-.38.82.82,0,0,0-.6-.26,1.14,1.14,0,0,0-.57.16,1.7,1.7,0,0,0-.47.41,2,2,0,0,0-.32.55,1.51,1.51,0,0,0-.11.57v3.92h-1.49V47.15h1.49v.49a2.17,2.17,0,0,1,.84-.46,3,3,0,0,1,.86-.14,2.16,2.16,0,0,1,.91.2,1.81,1.81,0,0,1,.77.65,2.74,2.74,0,0,1,.45-.39,2.49,2.49,0,0,1,.51-.27,2.72,2.72,0,0,1,.54-.15A2.62,2.62,0,0,1,189,47Zm-8.68-6.62a9.56,9.56,0,0,1-2.74-.71c-1.38-.53-2.07-1-2.07-1.3a.14.14,0,0,1,.16-.16,9.45,9.45,0,0,1,1.21.46,5.24,5.24,0,0,0,1.8.46c1,0,2.2-.68,3.59-2s2.1-2.51,2.1-3.5c0-.71-.85-1.69-2.56-2.92.1-.42.27-1.19.52-2.31a8,8,0,0,1,1.91,2,6.76,6.76,0,0,1,.85,3.53,7.79,7.79,0,0,1-1.64,4.38C182.44,39.7,181.4,40.41,180.31,40.41Zm-5.75-6.51a4.77,4.77,0,0,1-2.43,1,3.07,3.07,0,0,1-1.62-.21,1.28,1.28,0,0,1-.86-1.24q0-1.3,2.07-4l1.77-2.31a6.13,6.13,0,0,0,1.1,1c.58.43.95.72,1.1.85a2.11,2.11,0,0,1,.71,1.59,6.6,6.6,0,0,1-.76,2.28A5.91,5.91,0,0,1,174.56,33.9Zm-1.71-4.51a23.07,23.07,0,0,0-1.47,2,1.37,1.37,0,0,0-.14.59c0,.62.36.93,1.1.93a5.59,5.59,0,0,0,2.12-.47.86.86,0,0,0,.48-.79C174.91,31,174.21,30.23,172.85,29.39Zm-.14-5.3-.64,1.2L169.82,24l.93-1.58,2.07,1.31.72-1.18,2.2,1.33-.9,1.51ZM170.37,49a3.62,3.62,0,0,1,.21,1.26v.48h-4.7a2.91,2.91,0,0,0,.15.78,2.53,2.53,0,0,0,.36.67,1.82,1.82,0,0,0,.5.46,1.29,1.29,0,0,0,.63.17,1.61,1.61,0,0,0,1.57-1.26h1.39a2.8,2.8,0,0,1-.4,1,2.6,2.6,0,0,1-.68.72,2.82,2.82,0,0,1-.88.45,3.37,3.37,0,0,1-1,.15,3,3,0,0,1-2.32-1,3.79,3.79,0,0,1-.64-1.11,4.17,4.17,0,0,1-.22-1.33,3.69,3.69,0,0,1,.22-1.25,3.27,3.27,0,0,1,.63-1,3.05,3.05,0,0,1,1-.72,3.11,3.11,0,0,1,1.32-.27,3.28,3.28,0,0,1,1.28.24,2.76,2.76,0,0,1,1,.67A3,3,0,0,1,170.37,49Zm-1.45.13a1.59,1.59,0,0,0-.33-.53,1.64,1.64,0,0,0-.5-.36,1.67,1.67,0,0,0-.65-.13,1.31,1.31,0,0,0-.59.14,1.48,1.48,0,0,0-.49.37,1.63,1.63,0,0,0-.33.54,1.76,1.76,0,0,0-.15.64h3.17A2.41,2.41,0,0,0,168.92,49.09ZM160,53.68l-2.41-6.53h1.56l1.58,4.54,1.63-4.54h1.54l-2.4,6.53Zm-.86-30.35q-.09-.79,1.44-3.33c.08.13.21,2.2.41,6.19l.26,6.12a10.3,10.3,0,0,1-.91,3.3Q159.92,30.53,159.15,23.33ZM155.7,49.15a1.21,1.21,0,0,0-.23-.83.87.87,0,0,0-.64-.25,1.58,1.58,0,0,0-.69.15,1.84,1.84,0,0,0-.57.38,2,2,0,0,0-.37.54,1.61,1.61,0,0,0-.14.64v3.9h-1.5V47.15h1.5v.53a3.17,3.17,0,0,1,.93-.48,3.49,3.49,0,0,1,1-.16,3,3,0,0,1,.93.14,2,2,0,0,1,.68.4,1.65,1.65,0,0,1,.43.63,2.35,2.35,0,0,1,.14.82v4.65H155.7ZM155,24.78l.64,6.43a13.42,13.42,0,0,1-.26,2.15c-.2,1-.38,1.5-.57,1.5h-5.63a1.34,1.34,0,0,1-.77-.26,1.28,1.28,0,0,1-.33-.48c-.12-.26-.2-.39-.25-.41s-.22.19-.44.58-.4.57-.51.57h-8.66c-.44,0-.76-.35-.94-1a13.06,13.06,0,0,1-.25-1.55,7.22,7.22,0,0,1-1.17.88,8.51,8.51,0,0,0-1.19.86,3,3,0,0,1-2.22.86H118.2q-.37-6.91-1-13.17L118.49,20l.61,7.24a42.3,42.3,0,0,0,.62,5.21,1.08,1.08,0,0,0,.17.19,1.35,1.35,0,0,0,1,.3h11.63a7.73,7.73,0,0,0,4.67-2.1l-3.3-.69-1-.22a4.1,4.1,0,0,0-2.15,1,.16.16,0,0,0,0-.08,2.42,2.42,0,0,1,.21-.84c.61-1.43,1.48-2.14,2.61-2.14a12.08,12.08,0,0,1,3.06.63,18.69,18.69,0,0,0,4.61.93h.64l.67,0c-.16.45-.43,1.11-.82,2a6.13,6.13,0,0,0-.68,0,7.21,7.21,0,0,0-3.11.54,1.07,1.07,0,0,0,.49.93l.21.12H148l.06-2.53a26.4,26.4,0,0,1,1.74-2.09.66.66,0,0,1,0,.22,21.81,21.81,0,0,1-.43,3.61,4,4,0,0,0-.08.57c0,.14.15.22.38.22h4.82c.06,0,.08-.15.08-.46a69.32,69.32,0,0,0-1.12-8.62l-.14-.05a.67.67,0,0,1-.36-.56.92.92,0,0,1,.13-.46l1-1.74c.19-.34.34-.47.42-.39s.17.09.17.18a.79.79,0,0,1-.1.32,1.08,1.08,0,0,0-.1.32.37.37,0,0,0,.23.3c.57.32,1.12.63,1.66.91l-1.1,2.17Zm-8.53,0L145.84,26l-2.2-1.28.92-1.59,2.08,1.31.71-1.17,2.23,1.32-.92,1.52ZM118.13,47a3.28,3.28,0,0,1,1.28.24,2.76,2.76,0,0,1,1,.67,3,3,0,0,1,.62,1,3.62,3.62,0,0,1,.21,1.26v.48h-4.7a2.91,2.91,0,0,0,.15.78,2.53,2.53,0,0,0,.36.67,1.82,1.82,0,0,0,.5.46,1.29,1.29,0,0,0,.63.17,1.61,1.61,0,0,0,1.57-1.26h1.39a2.8,2.8,0,0,1-.4,1,2.6,2.6,0,0,1-.68.72,2.82,2.82,0,0,1-.88.45,3.37,3.37,0,0,1-1,.15,3,3,0,0,1-2.32-1,3.79,3.79,0,0,1-.64-1.11,3.91,3.91,0,0,1-.22-1.33,3.46,3.46,0,0,1,.22-1.25,3.27,3.27,0,0,1,.63-1,3.05,3.05,0,0,1,1-.72A3.11,3.11,0,0,1,118.13,47Zm-1.48,2.08a1.76,1.76,0,0,0-.15.64h3.17a2.11,2.11,0,0,0-.14-.67,1.42,1.42,0,0,0-.32-.53,1.64,1.64,0,0,0-.5-.36,1.67,1.67,0,0,0-.65-.13,1.39,1.39,0,0,0-.6.14,1.55,1.55,0,0,0-.48.37A1.63,1.63,0,0,0,116.65,49.12Zm-6.71-8.71a9.41,9.41,0,0,1-2.74-.71c-1.38-.53-2.07-1-2.07-1.3a.14.14,0,0,1,.16-.16,10.15,10.15,0,0,1,1.21.46,5.19,5.19,0,0,0,1.8.46c1,0,2.19-.68,3.59-2s2.09-2.51,2.09-3.5c0-.71-.85-1.69-2.55-2.92q.15-.63.51-2.31a7.67,7.67,0,0,1,1.91,2,6.66,6.66,0,0,1,.85,3.53,7.77,7.77,0,0,1-1.63,4.38C112.07,39.7,111,40.41,109.94,40.41Zm-5.75-6.51a4.8,4.8,0,0,1-2.44,1,3,3,0,0,1-1.61-.21,1.27,1.27,0,0,1-.86-1.24q0-1.3,2.07-4l1.76-2.31a6.51,6.51,0,0,0,1.1,1c.59.43,1,.72,1.1.85a2.11,2.11,0,0,1,.71,1.59,6.38,6.38,0,0,1-.76,2.28A5.89,5.89,0,0,1,104.19,33.9Zm-1.72-4.51a23.23,23.23,0,0,0-1.46,2,1.39,1.39,0,0,0-.15.59c0,.62.37.93,1.1.93a5.59,5.59,0,0,0,2.12-.47.89.89,0,0,0,.49-.79Q104.51,30.65,102.47,29.39Zm-.13-5.3-.64,1.2L99.45,24l.93-1.58,2.07,1.31.72-1.18,2.2,1.33-.91,1.51Zm-1.2,23.19a2.76,2.76,0,0,1,1,.67,3,3,0,0,1,.62,1,3.62,3.62,0,0,1,.21,1.26v.48h-4.7a2.91,2.91,0,0,0,.15.78,2.53,2.53,0,0,0,.36.67,1.82,1.82,0,0,0,.5.46,1.29,1.29,0,0,0,.63.17,1.61,1.61,0,0,0,1.57-1.26h1.39a2.8,2.8,0,0,1-.4,1,2.6,2.6,0,0,1-.68.72,2.82,2.82,0,0,1-.88.45,3.37,3.37,0,0,1-1,.15,3,3,0,0,1-2.32-1,3.79,3.79,0,0,1-.64-1.11,4.17,4.17,0,0,1-.22-1.33,3.69,3.69,0,0,1,.22-1.25,3.27,3.27,0,0,1,.63-1,3.05,3.05,0,0,1,1-.72A3.11,3.11,0,0,1,99.86,47,3.28,3.28,0,0,1,101.14,47.28Zm-2,.93a1.55,1.55,0,0,0-.48.37,1.63,1.63,0,0,0-.33.54,1.76,1.76,0,0,0-.15.64h3.17a2.11,2.11,0,0,0-.14-.67,1.42,1.42,0,0,0-.32-.53,1.64,1.64,0,0,0-.5-.36,1.67,1.67,0,0,0-.65-.13A1.39,1.39,0,0,0,99.19,48.21Zm-5.07,1.1a1.72,1.72,0,0,0-.09-.6,1.17,1.17,0,0,0-.23-.38.87.87,0,0,0-.31-.2,1.07,1.07,0,0,0-.35-.06,1,1,0,0,0-.48.13,1.45,1.45,0,0,0-.45.34,1.62,1.62,0,0,0-.31.51,1.5,1.5,0,0,0-.13.64v4H90.28V49.31a2,2,0,0,0-.08-.6,1.15,1.15,0,0,0-.22-.38.82.82,0,0,0-.6-.26,1.14,1.14,0,0,0-.57.16,1.7,1.7,0,0,0-.47.41,2,2,0,0,0-.32.55,1.51,1.51,0,0,0-.11.57v3.92H86.42V47.15h1.49v.49a2.17,2.17,0,0,1,.84-.46,3,3,0,0,1,.86-.14,2.19,2.19,0,0,1,.91.2,1.81,1.81,0,0,1,.77.65,2.74,2.74,0,0,1,.45-.39,2.49,2.49,0,0,1,.51-.27,2.72,2.72,0,0,1,.54-.15,2.62,2.62,0,0,1,.55,0,2.67,2.67,0,0,1,.91.15,2.21,2.21,0,0,1,.71.43,1.87,1.87,0,0,1,.47.64,1.94,1.94,0,0,1,.17.8v4.63H94.12Zm-4.68-9.94a3,3,0,0,1-2.28,1.07A22.63,22.63,0,0,1,84.48,40c-1.45-.32-2.17-.6-2.17-.84s.09-.2.27-.2a5.49,5.49,0,0,1,1.26.22,5.88,5.88,0,0,0,1.28.21,2.47,2.47,0,0,0,.84-.13,10.16,10.16,0,0,0,3.53-2.33,4.81,4.81,0,0,0,1.83-3.3,3.86,3.86,0,0,0-.16-1.18,3.64,3.64,0,0,1-1.29,1.75,2.52,2.52,0,0,1-1.33.15,1.43,1.43,0,0,1-1.19-.9A3.58,3.58,0,0,1,87,31.92a5.42,5.42,0,0,1,1-2.61c.73-1.18,1.37-1.77,1.93-1.77.39,0,.83.5,1.34,1.48a6.69,6.69,0,0,1,.81,3.16,11.45,11.45,0,0,1-1.12,5A7.89,7.89,0,0,1,89.44,39.37Zm.87-8.75a1.35,1.35,0,0,0-1-.8,1.41,1.41,0,0,0-1,.56,1.55,1.55,0,0,0-.55,1c0,.31.26.55.71.72a2.82,2.82,0,0,0,1.06.21,1.45,1.45,0,0,0,1.18-.37A2.75,2.75,0,0,0,90.31,30.62ZM83,47a2.63,2.63,0,0,1,.91.15,2.16,2.16,0,0,1,.72.43,1.87,1.87,0,0,1,.47.64,1.94,1.94,0,0,1,.17.8v4.63H83.81V49.31a2,2,0,0,0-.08-.6,1.37,1.37,0,0,0-.23-.38.91.91,0,0,0-.32-.2,1,1,0,0,0-.34-.06,1,1,0,0,0-.49.13,1.41,1.41,0,0,0-.44.34,1.85,1.85,0,0,0-.32.51,1.66,1.66,0,0,0-.12.64v4H80V49.31a2,2,0,0,0-.08-.6,1.15,1.15,0,0,0-.22-.38.83.83,0,0,0-.3-.2.89.89,0,0,0-.3-.06,1.18,1.18,0,0,0-.58.16,2,2,0,0,0-.47.41,2,2,0,0,0-.31.55,1.54,1.54,0,0,0-.12.57v3.92H76.12V47.15H77.6v.49a2.32,2.32,0,0,1,.84-.46,3.15,3.15,0,0,1,.87-.14,2.19,2.19,0,0,1,.91.2,1.93,1.93,0,0,1,.77.65,2.38,2.38,0,0,1,.45-.39,2.49,2.49,0,0,1,.51-.27,2.72,2.72,0,0,1,.54-.15A2.59,2.59,0,0,1,83,47Zm-3.27-23.7c-.06-.53.42-1.64,1.45-3.33.07.13.21,2.2.4,6.19l.26,6.12a10.48,10.48,0,0,1-.9,3.3Q80.54,30.53,79.76,23.33Zm-3.75.4c0,.36,0,.68,0,1a9.13,9.13,0,0,1-.78,3.59,10.52,10.52,0,0,1-.72,1.32,4.27,4.27,0,0,0-.46.8,20.51,20.51,0,0,1,.78,2.74,4.22,4.22,0,0,1,.06.64c0,.8-.37,1.2-1.1,1.2H68.23l.34-2a7.61,7.61,0,0,0,2.55-1.56c1-.83,1.53-1.34,1.53-1.51a6.59,6.59,0,0,0-1.45-2.15,24.46,24.46,0,0,0-2.3-2.48c-.07.24-.17.59-.31,1-1.24-.83-2-1.36-2.3-1.61a2.37,2.37,0,0,1-1-1.66c0-1.52.2-2.28.71-2.28a3.94,3.94,0,0,1,1.31.75,18,18,0,0,1,2.86,2.63,23.62,23.62,0,0,1,3.38,5,2.73,2.73,0,0,0,.76-.91,3.92,3.92,0,0,0,.56-1.54,4.68,4.68,0,0,0,0-.59,19.25,19.25,0,0,0-.51-3.43,3.73,3.73,0,0,1-.67-.82,2.08,2.08,0,0,1,.57-1.5c.46-.63.7-.89.71-.78A3,3,0,0,0,75.81,21a3.23,3.23,0,0,0,1.45.95c.08,0-.06.27-.43.72C76.65,22.91,76.37,23.26,76,23.73ZM73.3,30.87a6.53,6.53,0,0,1-1.92,1.56,12.24,12.24,0,0,1-1.31.74c0,.13.36.19,1.08.19s1.61,0,2.73-.16A6.08,6.08,0,0,0,73.3,30.87ZM66.5,45.23a3.46,3.46,0,0,1,.84,1,5.18,5.18,0,0,1,.52,1.2H66.32a3.25,3.25,0,0,0-1-1.47,2.38,2.38,0,0,0-1.55-.49,2.09,2.09,0,0,0-1.1.3,2.78,2.78,0,0,0-.86.78,3.85,3.85,0,0,0-.56,1.15,4.54,4.54,0,0,0-.2,1.39,5.85,5.85,0,0,0,.23,1.71A3.78,3.78,0,0,0,62,52a2.44,2.44,0,0,0,.88.7,2.19,2.19,0,0,0,1,.24,2.05,2.05,0,0,0,.93-.21,2.51,2.51,0,0,0,.74-.55,3.09,3.09,0,0,0,.52-.79,3.66,3.66,0,0,0,.3-.9h1.51a5.19,5.19,0,0,1-.46,1.36,4,4,0,0,1-.83,1.11,3.65,3.65,0,0,1-1.19.75,4.07,4.07,0,0,1-1.52.27,4.44,4.44,0,0,1-1.75-.33,3.67,3.67,0,0,1-1.34-1,4.37,4.37,0,0,1-.85-1.55,6.61,6.61,0,0,1-.3-2.06,5.84,5.84,0,0,1,.13-1.18,5.22,5.22,0,0,1,.38-1.09,4.52,4.52,0,0,1,.61-.95,4,4,0,0,1,.83-.76,3.68,3.68,0,0,1,1-.49,4.13,4.13,0,0,1,1.24-.18,4.72,4.72,0,0,1,1.52.22A3.65,3.65,0,0,1,66.5,45.23ZM62.92,34.86H59.68a.69.69,0,0,1-.41-.4l-.16-.32a8.08,8.08,0,0,1-.81.72H52.51a5.51,5.51,0,0,0-.34-.63,2,2,0,0,1-.41.27,2.43,2.43,0,0,1-.91.36h-4a1.35,1.35,0,0,1-.78-.26,1.43,1.43,0,0,1-.32-.48,1.36,1.36,0,0,0-.25-.41c-.07,0-.22.19-.45.58s-.39.57-.51.57H40.07a1.34,1.34,0,0,1-.77-.26,1.41,1.41,0,0,1-.33-.48c-.12-.26-.2-.39-.25-.41s-.22.19-.44.58-.4.57-.51.57H29.56L29,36.12l-4.83-2.64c-.21,0-.43.23-.67.69s-.49.69-.78.69H13.07q-.37-6.91-1-13.17L13.36,20,14,27.24a44.81,44.81,0,0,0,.62,5.21,1.08,1.08,0,0,0,.17.19,1.35,1.35,0,0,0,1,.3h7.07c.41,0,.73-.3.94-.89a7.55,7.55,0,0,1,.65-1.48,10.63,10.63,0,0,1,1.75-1.27,4.3,4.3,0,0,1,2-.71c.33,0,.49.15.49.46a5.14,5.14,0,0,1,0,.8s0,0,0,0c.51,1.95,1.15,3,1.94,3.12h8.31L39,30.41a26.4,26.4,0,0,1,1.74-2.09s0,.09,0,.22a21.81,21.81,0,0,1-.43,3.61c-.06.36-.08.55-.08.57s.15.22.38.22h5.1l0-2.53c.43-.58,1-1.27,1.74-2.09,0,0,0,.09,0,.22a23,23,0,0,1-.43,3.61,2.75,2.75,0,0,0-.08.57c0,.14.14.22.38.22H51.6c.36,0,.57-.25.64-.73,0-.12,0-.48,0-1.1L54,29.26a10.94,10.94,0,0,1-.83,3.68h5.47c.07,0,.1-.42.1-1.38,0-.44.61-1.14,1.82-2.09-.15.57-.41,1.61-.77,3.11-.08.25.58.37,2,.37h.81a18.54,18.54,0,0,0-.41-1.86c-.06-.13.13-.42.57-.88a8.39,8.39,0,0,0,.94-1.07v2.79a6.3,6.3,0,0,1-.33,2A2.8,2.8,0,0,1,62.92,34.86ZM28.13,31.62q-.27-1.05-.93-1.05a2.36,2.36,0,0,0-2.12,1.07l1.33.76a4.37,4.37,0,0,0,1.43.62l.59-.12C28.31,32.33,28.21,31.9,28.13,31.62Zm16-6.79L43.48,26l-2.2-1.28.91-1.59,2.09,1.31.7-1.17,2.23,1.32-.92,1.52Zm-6.8.16-.67,1.18-2.23-1.31.93-1.56,2.07,1.3.72-1.18,2.2,1.33-.9,1.51ZM34.9,21.67l.93-1.5,2.1,1.29L37,23Zm-25,25.48h1.49v6.53H9.87Zm0-2.52h1.49v1.29H9.87ZM4.81,40.41a9.49,9.49,0,0,1-2.74-.71C.69,39.17,0,38.74,0,38.4a.14.14,0,0,1,.16-.16,10.15,10.15,0,0,1,1.21.46,5.24,5.24,0,0,0,1.8.46c1,0,2.19-.68,3.59-2s2.09-2.51,2.09-3.5c0-.71-.85-1.69-2.55-2.92q.15-.63.51-2.31a7.67,7.67,0,0,1,1.91,2,6.66,6.66,0,0,1,.85,3.53,7.77,7.77,0,0,1-1.63,4.38C6.94,39.7,5.9,40.41,4.81,40.41Zm-.48,11,2.61-6.81H8.68v9H7.17V47.44L4.78,53.68h-1L1.5,47.44v6.24H0v-9H1.74Zm9.59-3.77a3.17,3.17,0,0,1,.93-.48,3.49,3.49,0,0,1,1-.16,2.87,2.87,0,0,1,.92.14,2,2,0,0,1,.69.4,1.52,1.52,0,0,1,.42.63A2.14,2.14,0,0,1,18,49v4.65H16.56V49.15a1.21,1.21,0,0,0-.23-.83.87.87,0,0,0-.65-.25,1.57,1.57,0,0,0-.68.15,1.73,1.73,0,0,0-.57.38,1.79,1.79,0,0,0-.37.54,1.61,1.61,0,0,0-.14.64v3.9h-1.5V47.15h1.5Zm6.77-1.76H19.21V44.63h1.48Zm0,7.76H19.21V47.15h1.48Zm2.69-1.58a1.44,1.44,0,0,0,.25.4.91.91,0,0,0,.37.21,1.35,1.35,0,0,0,.46.07,2.25,2.25,0,0,0,.44,0,1.23,1.23,0,0,0,.42-.14.91.91,0,0,0,.31-.27.7.7,0,0,0,.13-.44.68.68,0,0,0-.12-.4,1.08,1.08,0,0,0-.31-.29,2.8,2.8,0,0,0-.46-.22l-.54-.2-.84-.3a3.78,3.78,0,0,1-.75-.39,2,2,0,0,1-.55-.54,1.36,1.36,0,0,1-.21-.77,1.41,1.41,0,0,1,.21-.77,1.64,1.64,0,0,1,.54-.54,2.73,2.73,0,0,1,.8-.32,4.15,4.15,0,0,1,1.94,0,2.39,2.39,0,0,1,.83.35,1.75,1.75,0,0,1,.55.6,1.93,1.93,0,0,1,.23.87H25.59a1.21,1.21,0,0,0-.14-.43.85.85,0,0,0-.25-.28.94.94,0,0,0-.34-.14,1.68,1.68,0,0,0-.4,0,1.16,1.16,0,0,0-.72.2.68.68,0,0,0-.14.9,1.26,1.26,0,0,0,.32.28,2.82,2.82,0,0,0,.46.23l.54.2.84.32a3.76,3.76,0,0,1,.75.38,2.09,2.09,0,0,1,.55.51,1.17,1.17,0,0,1,.2.69,1.69,1.69,0,0,1-.23.93,1.75,1.75,0,0,1-.61.63,3,3,0,0,1-.9.36,5.14,5.14,0,0,1-1.06.11,3.82,3.82,0,0,1-1-.14,2.62,2.62,0,0,1-.85-.43,2.08,2.08,0,0,1-.59-.72,2.24,2.24,0,0,1-.24-1h1.53A1.63,1.63,0,0,0,23.38,52.1Zm5.36-6.83h1.5v1.88h1v1h-1v4a.74.74,0,0,0,.12.49.38.38,0,0,0,.3.13l.23,0,.49-.09v1a5.59,5.59,0,0,1-.56.12,3.37,3.37,0,0,1-.52,0,2.35,2.35,0,0,1-.6-.07,1.43,1.43,0,0,1-.5-.23,1,1,0,0,1-.33-.41,1.32,1.32,0,0,1-.13-.62V48.17h-1v-1h1Zm4.89,2.47a1.82,1.82,0,0,1,.63-.51A1.61,1.61,0,0,1,35,47a1.53,1.53,0,0,1,.33,0,2.72,2.72,0,0,1,.38.11v1.22a3.91,3.91,0,0,0-.73-.23,1.05,1.05,0,0,0-.54.13,1.25,1.25,0,0,0-.41.35,1.52,1.52,0,0,0-.25.51,2,2,0,0,0-.09.6v3.91H32.21V47.15h1.34Zm3.84-.59L39,51.61l1.54-4.46h1.54L39.32,55a2.55,2.55,0,0,1-.34.66,1.85,1.85,0,0,1-.43.45,2,2,0,0,1-.48.25,1.58,1.58,0,0,1-.47.07l-.43,0a3,3,0,0,1-.53-.16v-1.1l.23.09.24.09.22.07.14,0a.24.24,0,0,0,.17-.1,1,1,0,0,0,.14-.23,2.55,2.55,0,0,0,.13-.29,2.13,2.13,0,0,0,.09-.27l.28-.89-2.4-6.5Zm8.65.88a2.75,2.75,0,0,1,1-.72A3.18,3.18,0,0,1,48.44,47a3.27,3.27,0,0,1,1.36.27,3,3,0,0,1,1,.72,3.37,3.37,0,0,1,.61,1.08,4.22,4.22,0,0,1,0,2.63,3.32,3.32,0,0,1-.61,1.07,2.88,2.88,0,0,1-1,.72,3.27,3.27,0,0,1-1.36.27,3.18,3.18,0,0,1-1.34-.27,2.63,2.63,0,0,1-1-.72,3.14,3.14,0,0,1-.61-1.07,4.22,4.22,0,0,1,0-2.63A3.19,3.19,0,0,1,46.12,48Zm.78,3.3a2.64,2.64,0,0,0,.33.74,1.58,1.58,0,0,0,.53.5,1.3,1.3,0,0,0,.68.18,1.34,1.34,0,0,0,.69-.18,1.68,1.68,0,0,0,.53-.5,2.64,2.64,0,0,0,.33-.74,3.34,3.34,0,0,0,.12-.91,3.39,3.39,0,0,0-.12-.91,2.64,2.64,0,0,0-.33-.74,1.61,1.61,0,0,0-.53-.51,1.35,1.35,0,0,0-.69-.19,1.31,1.31,0,0,0-.68.19,1.52,1.52,0,0,0-.53.51,2.64,2.64,0,0,0-.33.74,3.84,3.84,0,0,0-.11.91A3.78,3.78,0,0,0,46.9,51.33Zm6.44-5.63a1.32,1.32,0,0,1,.11-.53,1.34,1.34,0,0,1,.33-.42,1.56,1.56,0,0,1,.51-.28,2.07,2.07,0,0,1,.68-.1,1.72,1.72,0,0,1,.51.09,2.53,2.53,0,0,1,.56.25v1l-.53-.21a1,1,0,0,0-.23-.08.46.46,0,0,0-.31.1.49.49,0,0,0-.12.36v1.27H56V48.2h-1.1v5.48H53.34V48.2H52.26V47.15h1.08ZM69.61,48a2.84,2.84,0,0,1,1-.72,3.51,3.51,0,0,1,2.7,0,2.82,2.82,0,0,1,1,.72,3.19,3.19,0,0,1,.61,1.08,4.22,4.22,0,0,1,0,2.63,3.14,3.14,0,0,1-.61,1.07,2.7,2.7,0,0,1-1,.72,3.51,3.51,0,0,1-2.7,0,2.72,2.72,0,0,1-1-.72A3.32,3.32,0,0,1,69,51.74a4.42,4.42,0,0,1,0-2.63A3.37,3.37,0,0,1,69.61,48Zm.79,3.3a2.17,2.17,0,0,0,.33.74,1.55,1.55,0,0,0,.52.5,1.39,1.39,0,0,0,1.37,0,1.68,1.68,0,0,0,.53-.5,2.65,2.65,0,0,0,.34-.74,3.34,3.34,0,0,0,.11-.91,3.39,3.39,0,0,0-.11-.91,2.65,2.65,0,0,0-.34-.74,1.61,1.61,0,0,0-.53-.51,1.33,1.33,0,0,0-1.37,0,1.49,1.49,0,0,0-.52.51,2.17,2.17,0,0,0-.33.74,3.39,3.39,0,0,0-.12.91A3.34,3.34,0,0,0,70.4,51.33Zm34.89-3.59a1.82,1.82,0,0,1,.63-.51,1.61,1.61,0,0,1,.76-.19,1.52,1.52,0,0,1,.32,0,2.85,2.85,0,0,1,.39.11v1.22a4.14,4.14,0,0,0-.74-.23,1.08,1.08,0,0,0-.54.13,1.25,1.25,0,0,0-.41.35,1.52,1.52,0,0,0-.25.51,2.35,2.35,0,0,0-.08.6v3.91h-1.49V47.15h1.33Zm3.65.25a2.81,2.81,0,0,1,1-.69,3.05,3.05,0,0,1,1.26-.26,3.41,3.41,0,0,1,1.11.17,2.7,2.7,0,0,1,.83.48,2.48,2.48,0,0,1,.58.71,3.4,3.4,0,0,1,.33.91h-1.55a2,2,0,0,0-.5-1,1.21,1.21,0,0,0-.81-.28,1.28,1.28,0,0,0-.67.19,1.5,1.5,0,0,0-.48.49,2.19,2.19,0,0,0-.31.71,3.36,3.36,0,0,0-.1.85,3.91,3.91,0,0,0,.1.91A2.66,2.66,0,0,0,110,52a1.72,1.72,0,0,0,.48.55,1,1,0,0,0,.64.21,1,1,0,0,0,.49-.12,1.19,1.19,0,0,0,.38-.33,1.73,1.73,0,0,0,.28-.48,3.66,3.66,0,0,0,.17-.59H114a3.57,3.57,0,0,1-.3,1.08,2.88,2.88,0,0,1-.61.81,2.46,2.46,0,0,1-.88.5,3.41,3.41,0,0,1-1.14.18,2.71,2.71,0,0,1-1.34-.31,2.93,2.93,0,0,1-.93-.82,3.4,3.4,0,0,1-.53-1.12,4.55,4.55,0,0,1-.18-1.25,3.64,3.64,0,0,1,.22-1.29A3.09,3.09,0,0,1,108.94,48Zm16.54,2.7a2.61,2.61,0,0,1,.66-.36c.25-.09.51-.17.76-.24l.76-.19a4.87,4.87,0,0,0,.67-.2,1.63,1.63,0,0,0,.47-.28A.53.53,0,0,0,129,49a.78.78,0,0,0-.33-.71,1.6,1.6,0,0,0-.92-.23,1.49,1.49,0,0,0-.43.06,1,1,0,0,0-.36.17,1.08,1.08,0,0,0-.26.3,1.46,1.46,0,0,0-.15.46H125a1.82,1.82,0,0,1,.29-.91,2.14,2.14,0,0,1,.65-.62,2.87,2.87,0,0,1,.86-.37,3.93,3.93,0,0,1,.95-.12,4.9,4.9,0,0,1,1,.11,3,3,0,0,1,.87.34,2.09,2.09,0,0,1,.61.61,1.78,1.78,0,0,1,.23.91v3.33a.73.73,0,0,0,.05.3c0,.1.08.14.12.14a4.91,4.91,0,0,0,.59-.18v1l-.51.13a1.9,1.9,0,0,1-.41,0,1.28,1.28,0,0,1-.71-.19,1.15,1.15,0,0,1-.45-.6,3.46,3.46,0,0,1-.52.4,2.48,2.48,0,0,1-.53.24,2.57,2.57,0,0,1-.55.12l-.57,0a2.55,2.55,0,0,1-.84-.13,2.26,2.26,0,0,1-.69-.36,1.71,1.71,0,0,1-.45-.58,1.74,1.74,0,0,1-.17-.77,1.5,1.5,0,0,1,.18-.76A1.79,1.79,0,0,1,125.48,50.69Zm.91,1.66a.6.6,0,0,0,.18.25.73.73,0,0,0,.26.14,1,1,0,0,0,.29,0,1.74,1.74,0,0,0,1-.33,3,3,0,0,0,.87-1V50.4a1.81,1.81,0,0,1-.44.19l-.56.17-.59.18a2.36,2.36,0,0,0-.53.24,1.24,1.24,0,0,0-.39.32.67.67,0,0,0-.14.45A1,1,0,0,0,126.39,52.35Zm8.09-13.52.93-1.48,2.09,1.24-.93,1.55Zm-.78,8.85a3,3,0,0,1,.92-.48,3.61,3.61,0,0,1,1-.16,2.91,2.91,0,0,1,.92.14,1.83,1.83,0,0,1,.68.4,1.65,1.65,0,0,1,.43.63,2.14,2.14,0,0,1,.15.82v4.65h-1.49V49.15a1.16,1.16,0,0,0-.23-.83.85.85,0,0,0-.64-.25,1.65,1.65,0,0,0-.69.15,1.79,1.79,0,0,0-.56.38,1.83,1.83,0,0,0-.38.54,1.59,1.59,0,0,0-.13.64v3.9h-1.51V47.15h1.51Zm5.8.35a2.49,2.49,0,0,1,.91-.72,2.74,2.74,0,0,1,1.25-.27,2.26,2.26,0,0,1,.77.16,3.33,3.33,0,0,1,.74.41v-3h1.49v9h-1.49v-.4a2.7,2.7,0,0,1-.7.4,2.39,2.39,0,0,1-.79.14,3,3,0,0,1-1.26-.26,2.7,2.7,0,0,1-.91-.73,3.12,3.12,0,0,1-.56-1.07,4.93,4.93,0,0,1,0-2.64A3.2,3.2,0,0,1,139.5,48Zm.87,3.32a2.79,2.79,0,0,0,.28.74,1.48,1.48,0,0,0,.46.5,1.14,1.14,0,0,0,1.23,0,1.46,1.46,0,0,0,.45-.5,2.48,2.48,0,0,0,.28-.74,3.87,3.87,0,0,0,.1-.92v-.1a4.15,4.15,0,0,0-.12-.88,2.39,2.39,0,0,0-.28-.71,1.42,1.42,0,0,0-.45-.49,1,1,0,0,0-.6-.18,1.1,1.1,0,0,0-.61.19,1.43,1.43,0,0,0-.46.51,2.86,2.86,0,0,0-.28.75,4.37,4.37,0,0,0-.1.91A4.47,4.47,0,0,0,140.37,51.35Zm9.85,2.33h-1.51v-9h1.51Zm22.95-1.58a1.44,1.44,0,0,0,.25.4.85.85,0,0,0,.37.21,1.35,1.35,0,0,0,.46.07,2.32,2.32,0,0,0,.44,0,1.23,1.23,0,0,0,.42-.14,1,1,0,0,0,.31-.27.76.76,0,0,0,.13-.44.68.68,0,0,0-.12-.4,1.12,1.12,0,0,0-.32-.29,2.36,2.36,0,0,0-.45-.22l-.54-.2-.84-.3a3.78,3.78,0,0,1-.75-.39,1.89,1.89,0,0,1-.55-.54,1.36,1.36,0,0,1-.21-.77A1.5,1.5,0,0,1,172,48a1.77,1.77,0,0,1,.55-.54,2.79,2.79,0,0,1,.79-.32,4.1,4.1,0,0,1,.94-.11,4.05,4.05,0,0,1,1,.12,2.34,2.34,0,0,1,.82.35,1.78,1.78,0,0,1,.56.6,1.93,1.93,0,0,1,.22.87h-1.49a1,1,0,0,0-.13-.43.85.85,0,0,0-.25-.28.94.94,0,0,0-.34-.14,1.68,1.68,0,0,0-.4,0,1.12,1.12,0,0,0-.72.2.65.65,0,0,0-.26.53.59.59,0,0,0,.12.37,1.26,1.26,0,0,0,.32.28,2.47,2.47,0,0,0,.46.23l.54.2.84.32a4.05,4.05,0,0,1,.75.38,2.2,2.2,0,0,1,.54.51,1.17,1.17,0,0,1,.21.69,1.78,1.78,0,0,1-.23.93,1.84,1.84,0,0,1-.61.63,3,3,0,0,1-.9.36,5.24,5.24,0,0,1-1.07.11,3.75,3.75,0,0,1-1-.14,2.62,2.62,0,0,1-.85-.43,2.08,2.08,0,0,1-.59-.72,2.38,2.38,0,0,1-.25-1h1.54A1.63,1.63,0,0,0,173.17,52.1Zm5.36-6.83H180v1.88h1v1h-1v4a.74.74,0,0,0,.12.49.38.38,0,0,0,.3.13l.23,0,.48-.09v1a4.88,4.88,0,0,1-.55.12,3.49,3.49,0,0,1-.53,0,2.27,2.27,0,0,1-.59-.07,1.43,1.43,0,0,1-.5-.23,1.15,1.15,0,0,1-.34-.41,1.46,1.46,0,0,1-.12-.62V48.17h-1v-1h1ZM193.19,48a3.05,3.05,0,0,1,1-.72,3.11,3.11,0,0,1,1.32-.27,3.28,3.28,0,0,1,1.28.24,2.76,2.76,0,0,1,1,.67,3,3,0,0,1,.62,1,3.62,3.62,0,0,1,.21,1.26v.48h-4.7a2.91,2.91,0,0,0,.15.78,2.53,2.53,0,0,0,.36.67,1.82,1.82,0,0,0,.5.46,1.29,1.29,0,0,0,.63.17,1.61,1.61,0,0,0,1.57-1.26h1.39a2.8,2.8,0,0,1-.4,1,2.6,2.6,0,0,1-.68.72,2.82,2.82,0,0,1-.88.45,3.37,3.37,0,0,1-1,.15,3,3,0,0,1-2.32-1,3.79,3.79,0,0,1-.64-1.11,4.17,4.17,0,0,1-.22-1.33,3.69,3.69,0,0,1,.22-1.25A3.27,3.27,0,0,1,193.19,48Zm3.86,1.73a2.41,2.41,0,0,0-.13-.67,1.59,1.59,0,0,0-.33-.53,1.64,1.64,0,0,0-.5-.36,1.67,1.67,0,0,0-.65-.13,1.39,1.39,0,0,0-.6.14,1.55,1.55,0,0,0-.48.37,1.63,1.63,0,0,0-.33.54,1.76,1.76,0,0,0-.15.64Zm4-2.08a3,3,0,0,1,.92-.48,3.51,3.51,0,0,1,1-.16,2.91,2.91,0,0,1,.92.14,1.91,1.91,0,0,1,.68.4,1.65,1.65,0,0,1,.43.63,2.14,2.14,0,0,1,.14.82v4.65h-1.48V49.15a1.21,1.21,0,0,0-.23-.83.87.87,0,0,0-.64-.25,1.58,1.58,0,0,0-.69.15,1.68,1.68,0,0,0-.56.38,1.83,1.83,0,0,0-.38.54,1.59,1.59,0,0,0-.13.64v3.9h-1.51V47.15h1.51Zm21.47,23.38c9-1.92,21.95-3,35.38-3S284,69.12,293,71l-3,2.94c-8.76-1.85-21.41-3-35.48-3s-26.71,1.18-35.48,3l2.75-2.74Z"/></g></g></svg>