<svg xmlns="http://www.w3.org/2000/svg" viewBox="0 0 293.02 73.95" width="293.03" height="73.938"><g data-name="Layer 2"><path d="M257.91 67.15c-13.18 0-25.85 1-34.91 2.9 1.85-9.06 2.9-21.74 2.9-34.93S224.85 9.27 223 .2c9.06 1.84 21.73 2.9 34.91 2.9S283.77 2 292.82.2c-1.84 9.06-2.9 21.73-2.9 34.92S291 61 292.82 70.05c-9.05-1.85-21.73-2.9-34.91-2.9zm-11.59-49.9a.53.53 0 00-.1.43v.16h-.15a1.13 1.13 0 00-.91 1.3v.11h-.09s-.81.48-.94 1.08a.63.63 0 00.06.5 4.58 4.58 0 00.67.05 1.57 1.57 0 001.13-.29 5.48 5.48 0 001.84-1l.08-.06.08.05a1.42 1.42 0 00.67.16 1.87 1.87 0 001.24-.53l.11-.09.09.11a.62.62 0 00.27.17h.29a2 2 0 001.11-.43l.15-.11.07.18s.22.52 1.28.52a3.12 3.12 0 00.52 0 25 25 0 012.74-.85l.39-.07a11.87 11.87 0 00-1.19-.4c-.64-.18-1.19-.3-1.19-.3-1-.49-1.24-1.05-1.28-1.34a1.86 1.86 0 01-.95-.23h-.06a4.45 4.45 0 00-1.3-.28.66.66 0 00-.51.17.47.47 0 00-.07.34v.25l-.22-.09a5.18 5.18 0 00-1.59-.4.5.5 0 00-.4.12.46.46 0 000 .32l.07.24h-.22a4.61 4.61 0 00-.65 0 1.44 1.44 0 00-1.04.21zm4.52 9.54a1 1 0 00.26 1.34l.07.05v.11a2.07 2.07 0 00.12 1.24.44.44 0 00.31.22c.36-.37.87-1 .82-1.38v-.08a5.54 5.54 0 00.42-1.85v-.11h.08a1.63 1.63 0 00.82-1.54v-.15h.14s.65 0 .79-1.3v-.19l.16.06s.55.17 1.26-1a19.1 19.1 0 011.12-2.65 27 27 0 00-2.48 2.44 2.64 2.64 0 01-1.41.59.85.85 0 01-.55-.19 5.47 5.47 0 01-.38.52l.06.06.2.14-.21.13c-.51.31-1.26.9-1.25 1.2 0 .08.07.14.18.19l.21.11-.17.16c-.23.21-.82.88-.79 1.34a.44.44 0 00.2.32l.12.08zm12.56 1.58c0 .36.46 1 .82 1.38a.49.49 0 00.32-.22 2 2 0 00.12-1.24v-.11l.08-.05a1 1 0 00.27-1.34l-.08-.14.12-.08a.47.47 0 00.2-.32c0-.46-.56-1.13-.79-1.34l-.17-.16.2-.11c.11-.05.17-.11.17-.19 0-.3-.71-.89-1.24-1.2l-.21-.13.2-.14.07-.06a3.34 3.34 0 01-.38-.52.85.85 0 01-.55.19 2.66 2.66 0 01-1.45-.59 25.15 25.15 0 00-2.5-2.45 20.5 20.5 0 011.12 2.65c.72 1.19 1.25 1 1.25 1l.16-.05v.18c.15 1.26.76 1.3.79 1.3h.13v.15a1.61 1.61 0 00.81 1.54h.09v.1a5.32 5.32 0 00.41 1.85v.08zm5.81-2.94a1.82 1.82 0 00-.54-2l-.09-.06v-.13a1 1 0 00-.06-.7 2.83 2.83 0 00-1.47-1.05l-.17-.05.08-.17a.52.52 0 000-.51c-.26-.46-1.4-.56-1.81-.56H265l.07-.22a1.43 1.43 0 000-.22h-.09a2.18 2.18 0 01-1.15-.41 1.68 1.68 0 01-1.46.56 4 4 0 01-.57-.05 17.72 17.72 0 00-3.28-.94h-.21l.27.18.42.33a25.66 25.66 0 012.29 2.29 2.33 2.33 0 001.25.53.54.54 0 00.46-.2v-.09l.08-.11.11.2a3.67 3.67 0 00.47.66 1.67 1.67 0 00.12.13.94.94 0 00.65.33.46.46 0 00.23-.05l.13-.11.09.16c.57 1.2 1.25 1.34 1.53 1.34h.19v.1a8.32 8.32 0 001.45 2c.19.55 1.1 1 1.53 1.13.56-.75-.45-2.24-.45-2.26v-.07zm-6.68 16.7h-3.87l.73-3.63-.65-.64.85-3.3-.66-.32.86-3.6-.79-.57.7-3.08-.79-.43.49-2.73-.66-.43.1-2.95a3.33 3.33 0 00-.94-1.45 3.46 3.46 0 00-.93 1.46l.11 2.95-.66.43.49 2.73-.78.43.69 3.08-.79.57.88 3.6-.67.32.83 3.3-.65.64.84 3.65h-4s-.52.22-.34.6a10.46 10.46 0 002.36 2.32c.16-.1.16-.87.28-1s.67.8 1 1c0 0 .65-.47 1.25-.85a5.13 5.13 0 011 .85c.39-.21 1.25-1.13 1.32-1s.11.92.27 1a10 10 0 002.37-2.31c.23-.41-.24-.64-.24-.64zm-11.61-18.94L251 23l.15.11a.35.35 0 00.22.06.94.94 0 00.64-.33l.13-.13a4.29 4.29 0 00.46-.66l.12-.21.07.13.05.08a.54.54 0 00.46.2 2.3 2.3 0 001.24-.53 26.28 26.28 0 012.3-2.29l.42-.33.26-.18h-.22a17.46 17.46 0 00-3.28.94h-.58a1.67 1.67 0 01-1.46-.56 2.1 2.1 0 01-1.15.4h-.08a.78.78 0 000 .22l.07.22h-.21c-.42 0-1.55.1-1.82.56a.58.58 0 000 .51l.07.17-.15.05a2.77 2.77 0 00-1.48 1.05.94.94 0 000 .7v.13l-.09.06a1.81 1.81 0 00-.55 2v.13s-1 1.51-.46 2.26c.43-.15 1.34-.58 1.54-1.13a8.45 8.45 0 001.44-2v-.1h.19c.36 0 1.05-.14 1.62-1.34zm-.68-10.84a.37.37 0 00-.38.27l-.06.15-.14-.07a.82.82 0 00-.35-.08.91.91 0 00-.81.59v.09h-.16a1.53 1.53 0 00-1.05.33.57.57 0 00-.14.36 2.93 2.93 0 001.29.68h.09a4.37 4.37 0 001.25.18h.59v.09a1.37 1.37 0 001.23.65 1.46 1.46 0 00.29 0h.14v.15a.63.63 0 00.2.34l.13.1a1.13 1.13 0 00.33.15h.14a2.47 2.47 0 00.5 0h.18v.14c0 .09 0 .64 1.12 1.17a17.68 17.68 0 012.08.59 7.39 7.39 0 01.78.32 3 3 0 00-.34-.38 16.34 16.34 0 00-1.42-1.3 1.94 1.94 0 01-.55-1.55 1.31 1.31 0 01-.83-1.14 1.63 1.63 0 01-.7-.51c-.08 0-.17 0-.25.21l-.1.24-.14-.2c-.32-.45-.94-1.16-1.26-1.16 0 0-.12 0-.17.22l-.08.25-.16-.16a2.57 2.57 0 00-1.25-.72zm6 .8l-.19.17v-.25c-.13-.67-.42-1.38-.62-1.38 0 0-.09 0-.14.11l-.15.18-.1-.22c-.11-.26-.5-1-.86-1a.3.3 0 00-.2.09l-.12.11-.09-.12a.75.75 0 00-.54-.27.76.76 0 00-.49.2l-.07.06-.09-.05a1.79 1.79 0 00-.72-.22.43.43 0 00-.44.25c.19.38.55 1 .82 1a4.25 4.25 0 001.3.8h.08v.11a1.18 1.18 0 00.19.52 1.49 1.49 0 00.75.54h.09v.31a.29.29 0 000 .1.73.73 0 00.24.52 1.86 1.86 0 00.53.37l.13.05-.08.14s-.24.44.46 1.32c.09.07.58.48 1.08.95l.34.35a3.08 3.08 0 01.3.33s0-.12-.06-.19c-.36-1.24-1-3.51-1.25-5a.22.22 0 00-.12.12zm3-1.16h-.11v-.17a4.5 4.5 0 00-.13-2.27c-.06-.05-.09-.06-.12-.06a.26.26 0 00-.1 0l-.17.1v-.21a3.65 3.65 0 00-.67-1.59 3.81 3.81 0 00-.66 1.59v.21l-.16-.1a.37.37 0 00-.11 0 .12.12 0 00-.1.06 4.22 4.22 0 00-.2 2.27v.17h-.11a3.1 3.1 0 00.08.84 2 2 0 000 .24c0 .12 0 .26.08.4.22 1 .59 2.47 1 3.92a.29.29 0 010 .09c.05.14.09.28.13.43a.07.07 0 010 .05v-.05a3 3 0 01.12-.43.29.29 0 010-.09c.42-1.45.77-2.88 1-3.92 0-.14.06-.28.09-.4a2 2 0 010-.24 2.6 2.6 0 00.17-.83zm4.76-1.44a1.67 1.67 0 00-.72.22l-.09.05-.07-.06a.79.79 0 00-.51-.2.71.71 0 00-.52.27L262 11l-.12-.1a.29.29 0 00-.21-.1c-.36 0-.75.75-.87 1l-.08.22-.16-.19c0-.07-.1-.1-.13-.1-.2 0-.49.72-.62 1.38l-.06.25-.17-.17a.27.27 0 00-.16-.08c-.26 1.45-.89 3.72-1.27 5a.53.53 0 01-.05.18c.1-.12.2-.22.31-.33l.34-.34c.49-.48 1-.89 1.08-1 .7-.88.46-1.32.46-1.32l-.08-.15.13-.05a2 2 0 00.53-.37.77.77 0 00.24-.53v-.23h.1a1.46 1.46 0 00.74-.54 1.21 1.21 0 00.2-.52v-.11h.1a4 4 0 001.27-.79c.27-.05.62-.63.82-1a.45.45 0 00-.34-.46zm4.53 3.08a1.54 1.54 0 00-1-.33h-.16l-.05-.09a.91.91 0 00-.8-.59.83.83 0 00-.36.08l-.13.07-.06-.15a.38.38 0 00-.38-.27 2.43 2.43 0 00-1.22.65l-.18.15-.05-.24c-.06-.22-.15-.22-.18-.22-.32 0-.95.71-1.26 1.16l-.16.2-.09-.24c-.08-.18-.17-.21-.25-.21a1.63 1.63 0 01-.7.51c0 .25-.08.75-.83 1.14.07.25.07.78-.55 1.55a15.76 15.76 0 00-1.43 1.3 4 4 0 00-.34.38 7.17 7.17 0 01.77-.32 17.63 17.63 0 012.09-.59c1.07-.52 1.11-1.08 1.11-1.17v-.14h.18a1.87 1.87 0 00.49 0h.13a1.52 1.52 0 00.34-.15l.13-.1a.63.63 0 00.2-.34v-.15h.14a1.56 1.56 0 00.3 0 1.37 1.37 0 001.22-.65l.05-.09h.59a4.34 4.34 0 001.24-.18h.14a2.79 2.79 0 001.23-.6.57.57 0 00-.14-.37zm2.15 5.67h-.07v-.11a1.12 1.12 0 00-.91-1.3h-.16v-.16a.53.53 0 00-.1-.43 1.4 1.4 0 00-1.1-.33 4.21 4.21 0 00-.64 0h-.23l.06-.24a.41.41 0 000-.32c-.05-.08-.2-.12-.4-.12a5.37 5.37 0 00-1.59.4l-.22.09v-.25a.39.39 0 00-.08-.34.6.6 0 00-.5-.17 4.35 4.35 0 00-1.29.28h-.06a1.92 1.92 0 01-.95.23c0 .29-.27.85-1.29 1.34s-.55.12-1.2.3c-.39.11-.81.25-1.19.4l.39.07a23.84 23.84 0 012.73.85 3.37 3.37 0 00.52 0c1.06 0 1.28-.52 1.28-.52l.07-.17.15.1a2 2 0 001.11.43h.3a.73.73 0 00.26-.17l.1-.11.1.09a1.92 1.92 0 001.25.53 1.36 1.36 0 00.66-.16l.09-.05.08.06a5.48 5.48 0 001.83 1 1.55 1.55 0 001.13.29 4.42 4.42 0 00.66-.05.68.68 0 00.07-.5c-.01-.48-.81-.95-.83-.96zM268.93 44a70.67 70.67 0 00-11 7.83 71.7 71.7 0 00-11-7.83c-2.8-1.57-8.9-3.34-13.76-1.52 0 0 6.47-.55 15.06 5.16a83 83 0 017.77 5.95 77.542 77.542 0 00-3.88 3.84l-.12-.12a.19.19 0 00-.27 0 .21.21 0 00-.05.17.7.7 0 01-.19-.27.82.82 0 00-.25-.92.78.78 0 00-1.12 0 .79.79 0 00.12 1.12.87.87 0 00.77.21.62.62 0 01.06.55 3.61 3.61 0 01-3 1.43 3.18 3.18 0 01-2.41-1.2 1.27 1.27 0 00-1.94 0c-1.45 2.07 1.48 4 3.56 4a8 8 0 005.39-2.2c.22-.25.38-.35.57-.26s.18.23.22.4a.83.83 0 00.3.75.76.76 0 101-1.13.86.86 0 00-.63-.23h-.09a.19.19 0 00.09 0 .18.18 0 000-.27l-.29-.28-1.39-1.37 1.39 1.37c.52-.52 2-2 4.1-3.83 2.07 1.85 3.57 3.31 4.09 3.83l-.29.28a.2.2 0 000 .27.26.26 0 00.09 0h-.08a.83.83 0 00-.63.23.79.79 0 00-.12 1.14.81.81 0 001.13 0 .91.91 0 00.3-.75c0-.17.1-.35.21-.4s.35 0 .56.26a8.06 8.06 0 005.41 2.2c2.07 0 5-1.93 3.56-4a1.27 1.27 0 00-1.94 0 3.21 3.21 0 01-2.41 1.2 3.64 3.64 0 01-3-1.43.68.68 0 01.07-.55.85.85 0 00.76-.21.81.81 0 00.13-1.12.79.79 0 00-1.13 0 .84.84 0 00-.25.92.7.7 0 01-.19.27.18.18 0 00-.05-.17.19.19 0 00-.27 0l-.12.12q-2-2.07-3.87-3.84a85.75 85.75 0 017.73-5.93c8.6-5.71 15.07-5.16 15.07-5.16-4.89-1.83-11-.06-13.77 1.49zM222 70.53l-.14.67-2.76 2.8c1.86-8.78 3-21.44 3-35.5s-1.1-26.77-3-35.5l2.9-3c1.89 9 3 21.81 3 35.12s-1.09 26.36-3 35.41zm-13.79-16.72a2.27 2.27 0 01-.59-.07 1.43 1.43 0 01-.5-.23 1.06 1.06 0 01-.34-.41 1.46 1.46 0 01-.13-.62v-4.31h-1v-1h1v-1.9h1.51v1.88h1v1h-1v4a.74.74 0 00.12.49.38.38 0 00.3.13h.23l.48-.09v1a5.05 5.05 0 01-.56.12 3.28 3.28 0 01-.52.01zm-1.72-14.44a3 3 0 01-2.28 1.07 22.73 22.73 0 01-2.69-.44c-1.44-.32-2.17-.6-2.17-.84s.09-.2.28-.2a5.43 5.43 0 011.25.22 6 6 0 001.29.21 2.37 2.37 0 00.83-.13 10.1 10.1 0 003.54-2.33 4.79 4.79 0 001.82-3.3 3.58 3.58 0 00-.16-1.18 3.63 3.63 0 01-1.28 1.75 2.56 2.56 0 01-1.34.15 1.44 1.44 0 01-1.19-.9 3.58 3.58 0 01-.34-1.53 5.52 5.52 0 011-2.61c.73-1.18 1.38-1.77 1.94-1.77.38 0 .83.5 1.33 1.48a6.59 6.59 0 01.82 3.16 11.45 11.45 0 01-1.13 5 7.65 7.65 0 01-1.52 2.19zm.86-8.75a1.32 1.32 0 00-1-.8 1.38 1.38 0 00-1 .56 1.51 1.51 0 00-.55 1c0 .31.25.55.71.72a2.82 2.82 0 001.06.21 1.46 1.46 0 001.18-.37 2.77 2.77 0 00-.4-1.32zm-12.15 9.8a9.46 9.46 0 01-2.74-.73q-2.07-.78-2.07-1.29a.14.14 0 01.16-.16 9.45 9.45 0 011.21.46 5 5 0 001.8.46c1 0 2.2-.68 3.59-2s2.1-2.51 2.1-3.5c0-.71-.85-1.69-2.56-2.92.1-.42.27-1.19.51-2.32a8.1 8.1 0 011.92 2 6.77 6.77 0 01.88 3.48 7.76 7.76 0 01-1.64 4.37c-1.03 1.43-2.07 2.15-3.16 2.15zm-.73-15.85l.94-1.53 2.15 1.28-.92 1.56zM188 23.33q-.09-.79 1.44-3.33c.08.13.21 2.2.41 6.19l.26 6.12a10.3 10.3 0 01-.91 3.3q-.47-5.08-1.2-12.28zM189 47a2.67 2.67 0 01.91.15 2.21 2.21 0 01.71.43 1.87 1.87 0 01.47.64 1.94 1.94 0 01.17.8v4.63h-1.48v-4.34a1.72 1.72 0 00-.09-.6 1.17 1.17 0 00-.23-.38.87.87 0 00-.31-.2 1.07 1.07 0 00-.35-.06 1 1 0 00-.48.13 1.31 1.31 0 00-.44.34 1.48 1.48 0 00-.32.51 1.49 1.49 0 00-.12.64v4h-1.5v-4.38a1.74 1.74 0 00-.08-.6 1.15 1.15 0 00-.22-.38.82.82 0 00-.6-.26 1.14 1.14 0 00-.57.16 1.7 1.7 0 00-.47.41 2 2 0 00-.32.55 1.51 1.51 0 00-.11.57v3.92h-1.49v-6.53h1.49v.49a2.17 2.17 0 01.84-.46 3 3 0 01.86-.14 2.16 2.16 0 01.91.2 1.81 1.81 0 01.77.65 2.74 2.74 0 01.45-.39 2.49 2.49 0 01.51-.27 2.72 2.72 0 01.54-.15A2.62 2.62 0 01189 47zm-8.68-6.62a9.56 9.56 0 01-2.74-.71c-1.38-.53-2.07-1-2.07-1.3a.14.14 0 01.16-.16 9.45 9.45 0 011.21.46 5.24 5.24 0 001.8.46c1 0 2.2-.68 3.59-2s2.1-2.51 2.1-3.5c0-.71-.85-1.69-2.56-2.92.1-.42.27-1.19.52-2.31a8 8 0 011.91 2 6.76 6.76 0 01.85 3.53 7.79 7.79 0 01-1.64 4.38c-1.01 1.39-2.05 2.1-3.14 2.1zm-5.75-6.51a4.77 4.77 0 01-2.43 1 3.07 3.07 0 01-1.62-.21 1.28 1.28 0 01-.86-1.24q0-1.3 2.07-4l1.77-2.31a6.13 6.13 0 001.1 1c.58.43.95.72 1.1.85a2.11 2.11 0 01.71 1.59 6.6 6.6 0 01-.76 2.28 5.91 5.91 0 01-1.09 1.07zm-1.71-4.51a23.07 23.07 0 00-1.47 2 1.37 1.37 0 00-.14.59c0 .62.36.93 1.1.93a5.59 5.59 0 002.12-.47.86.86 0 00.48-.79c-.04-.62-.74-1.39-2.1-2.23zm-.14-5.3l-.64 1.2-2.26-1.26.93-1.58 2.07 1.31.72-1.18 2.2 1.33-.9 1.51zM170.37 49a3.62 3.62 0 01.21 1.26v.48h-4.7a2.91 2.91 0 00.15.78 2.53 2.53 0 00.36.67 1.82 1.82 0 00.5.46 1.29 1.29 0 00.63.17 1.61 1.61 0 001.57-1.26h1.39a2.8 2.8 0 01-.4 1 2.6 2.6 0 01-.68.72 2.82 2.82 0 01-.88.45 3.37 3.37 0 01-1 .15 3 3 0 01-2.32-1 3.79 3.79 0 01-.64-1.11 4.17 4.17 0 01-.22-1.33 3.69 3.69 0 01.22-1.25 3.27 3.27 0 01.63-1 3.05 3.05 0 011-.72 3.11 3.11 0 011.32-.27 3.28 3.28 0 011.28.24 2.76 2.76 0 011 .67 3 3 0 01.58.89zm-1.45.13a1.59 1.59 0 00-.33-.53 1.64 1.64 0 00-.5-.36 1.67 1.67 0 00-.65-.13 1.31 1.31 0 00-.59.14 1.48 1.48 0 00-.49.37 1.63 1.63 0 00-.33.54 1.76 1.76 0 00-.15.64h3.17a2.41 2.41 0 00-.13-.71zM160 53.68l-2.41-6.53h1.56l1.58 4.54 1.63-4.54h1.54l-2.4 6.53zm-.86-30.35q-.09-.79 1.44-3.33c.08.13.21 2.2.41 6.19l.26 6.12a10.3 10.3 0 01-.91 3.3q-.42-5.08-1.19-12.28zm-3.44 25.82a1.21 1.21 0 00-.23-.83.87.87 0 00-.64-.25 1.58 1.58 0 00-.69.15 1.84 1.84 0 00-.57.38 2 2 0 00-.37.54 1.61 1.61 0 00-.14.64v3.9h-1.5v-6.53h1.5v.53a3.17 3.17 0 01.93-.48 3.49 3.49 0 011-.16 3 3 0 01.93.14 2 2 0 01.68.4 1.65 1.65 0 01.43.63 2.35 2.35 0 01.14.82v4.65h-1.47zm-.7-24.37l.64 6.43a13.42 13.42 0 01-.26 2.15c-.2 1-.38 1.5-.57 1.5h-5.63a1.34 1.34 0 01-.77-.26 1.28 1.28 0 01-.33-.48c-.12-.26-.2-.39-.25-.41s-.22.19-.44.58-.4.57-.51.57h-8.66c-.44 0-.76-.35-.94-1a13.06 13.06 0 01-.25-1.55 7.22 7.22 0 01-1.17.88 8.51 8.51 0 00-1.19.86 3 3 0 01-2.22.86H118.2q-.37-6.91-1-13.17l1.29-1.74.61 7.24a42.3 42.3 0 00.62 5.21 1.08 1.08 0 00.17.19 1.35 1.35 0 001 .3h11.63a7.73 7.73 0 004.67-2.1l-3.3-.69-1-.22a4.1 4.1 0 00-2.15 1 .16.16 0 000-.08 2.42 2.42 0 01.21-.84c.61-1.43 1.48-2.14 2.61-2.14a12.08 12.08 0 013.06.63 18.69 18.69 0 004.61.93h1.31c-.16.45-.43 1.11-.82 2a6.13 6.13 0 00-.68 0 7.21 7.21 0 00-3.11.54 1.07 1.07 0 00.49.93l.21.12H148l.06-2.53a26.4 26.4 0 011.74-2.09.66.66 0 010 .22 21.81 21.81 0 01-.43 3.61 4 4 0 00-.08.57c0 .14.15.22.38.22h4.82c.06 0 .08-.15.08-.46a69.32 69.32 0 00-1.12-8.62l-.14-.05a.67.67 0 01-.36-.56.92.92 0 01.13-.46l1-1.74c.19-.34.34-.47.42-.39s.17.09.17.18a.79.79 0 01-.1.32 1.08 1.08 0 00-.1.32.37.37 0 00.23.3c.57.32 1.12.63 1.66.91l-1.1 2.17zm-8.53 0l-.63 1.22-2.2-1.28.92-1.59 2.08 1.31.71-1.17 2.23 1.32-.92 1.52zM118.13 47a3.28 3.28 0 011.28.24 2.76 2.76 0 011 .67 3 3 0 01.62 1 3.62 3.62 0 01.21 1.26v.48h-4.7a2.91 2.91 0 00.15.78 2.53 2.53 0 00.36.67 1.82 1.82 0 00.5.46 1.29 1.29 0 00.63.17 1.61 1.61 0 001.57-1.26h1.39a2.8 2.8 0 01-.4 1 2.6 2.6 0 01-.68.72 2.82 2.82 0 01-.88.45 3.37 3.37 0 01-1 .15 3 3 0 01-2.32-1 3.79 3.79 0 01-.64-1.11 3.91 3.91 0 01-.22-1.33 3.46 3.46 0 01.22-1.25 3.27 3.27 0 01.63-1 3.05 3.05 0 011-.72 3.11 3.11 0 011.28-.38zm-1.48 2.08a1.76 1.76 0 00-.15.64h3.17a2.11 2.11 0 00-.14-.67 1.42 1.42 0 00-.32-.53 1.64 1.64 0 00-.5-.36 1.67 1.67 0 00-.65-.13 1.39 1.39 0 00-.6.14 1.55 1.55 0 00-.48.37 1.63 1.63 0 00-.33.58zm-6.71-8.71a9.41 9.41 0 01-2.74-.71c-1.38-.53-2.07-1-2.07-1.3a.14.14 0 01.16-.16 10.15 10.15 0 011.21.46 5.19 5.19 0 001.8.46c1 0 2.19-.68 3.59-2s2.09-2.51 2.09-3.5c0-.71-.85-1.69-2.55-2.92q.15-.63.51-2.31a7.67 7.67 0 011.91 2 6.66 6.66 0 01.85 3.53 7.77 7.77 0 01-1.63 4.38c-1 1.4-2.07 2.11-3.13 2.11zm-5.75-6.51a4.8 4.8 0 01-2.44 1 3 3 0 01-1.61-.21 1.27 1.27 0 01-.86-1.24q0-1.3 2.07-4l1.76-2.31a6.51 6.51 0 001.1 1c.59.43 1 .72 1.1.85a2.11 2.11 0 01.71 1.59 6.38 6.38 0 01-.76 2.28 5.89 5.89 0 01-1.07 1.08zm-1.72-4.51a23.23 23.23 0 00-1.46 2 1.39 1.39 0 00-.15.59c0 .62.37.93 1.1.93a5.59 5.59 0 002.12-.47.89.89 0 00.49-.79q-.06-.96-2.1-2.22zm-.13-5.3l-.64 1.2L99.45 24l.93-1.58 2.07 1.31.72-1.18 2.2 1.33-.91 1.51zm-1.2 23.19a2.76 2.76 0 011 .67 3 3 0 01.62 1 3.62 3.62 0 01.21 1.26v.48h-4.7a2.91 2.91 0 00.15.78 2.53 2.53 0 00.36.67 1.82 1.82 0 00.5.46 1.29 1.29 0 00.63.17 1.61 1.61 0 001.57-1.26h1.39a2.8 2.8 0 01-.4 1 2.6 2.6 0 01-.68.72 2.82 2.82 0 01-.88.45 3.37 3.37 0 01-1 .15 3 3 0 01-2.32-1 3.79 3.79 0 01-.64-1.11 4.17 4.17 0 01-.22-1.33 3.69 3.69 0 01.22-1.25 3.27 3.27 0 01.63-1 3.05 3.05 0 011-.72 3.11 3.11 0 011.28-.38 3.28 3.28 0 011.28.28zm-2 .93a1.55 1.55 0 00-.48.37 1.63 1.63 0 00-.33.54 1.76 1.76 0 00-.15.64h3.17a2.11 2.11 0 00-.14-.67 1.42 1.42 0 00-.32-.53 1.64 1.64 0 00-.5-.36 1.67 1.67 0 00-.65-.13 1.39 1.39 0 00-.55.18zm-5.07 1.1a1.72 1.72 0 00-.09-.6 1.17 1.17 0 00-.23-.38.87.87 0 00-.31-.2 1.07 1.07 0 00-.35-.06 1 1 0 00-.48.13 1.45 1.45 0 00-.45.34 1.62 1.62 0 00-.31.51 1.5 1.5 0 00-.13.64v4h-1.44v-4.34a2 2 0 00-.08-.6 1.15 1.15 0 00-.22-.38.82.82 0 00-.6-.26 1.14 1.14 0 00-.57.16 1.7 1.7 0 00-.47.41 2 2 0 00-.32.55 1.51 1.51 0 00-.11.57v3.92h-1.49v-6.53h1.49v.49a2.17 2.17 0 01.84-.46 3 3 0 01.86-.14 2.19 2.19 0 01.91.2 1.81 1.81 0 01.77.65 2.74 2.74 0 01.45-.39 2.49 2.49 0 01.51-.27 2.72 2.72 0 01.54-.15 2.62 2.62 0 01.55 0 2.67 2.67 0 01.91.15 2.21 2.21 0 01.71.43 1.87 1.87 0 01.47.64 1.94 1.94 0 01.17.8v4.63h-1.48zm-4.68-9.94a3 3 0 01-2.28 1.07 22.63 22.63 0 01-2.63-.4c-1.45-.32-2.17-.6-2.17-.84s.09-.2.27-.2a5.49 5.49 0 011.26.22 5.88 5.88 0 001.28.21 2.47 2.47 0 00.84-.13 10.16 10.16 0 003.53-2.33 4.81 4.81 0 001.83-3.3 3.86 3.86 0 00-.16-1.18 3.64 3.64 0 01-1.29 1.75 2.52 2.52 0 01-1.33.15 1.43 1.43 0 01-1.19-.9 3.58 3.58 0 01-.35-1.53 5.42 5.42 0 011-2.61c.73-1.18 1.37-1.77 1.93-1.77.39 0 .83.5 1.34 1.48a6.69 6.69 0 01.81 3.16 11.45 11.45 0 01-1.12 5 7.89 7.89 0 01-1.52 2.19zm.87-8.75a1.35 1.35 0 00-1-.8 1.41 1.41 0 00-1 .56 1.55 1.55 0 00-.55 1c0 .31.26.55.71.72a2.82 2.82 0 001.06.21 1.45 1.45 0 001.18-.37 2.75 2.75 0 00-.35-1.28zM83 47a2.63 2.63 0 01.91.15 2.16 2.16 0 01.72.43 1.87 1.87 0 01.47.64 1.94 1.94 0 01.17.8v4.63h-1.46v-4.34a2 2 0 00-.08-.6 1.37 1.37 0 00-.23-.38.91.91 0 00-.32-.2 1 1 0 00-.34-.06 1 1 0 00-.49.13 1.41 1.41 0 00-.44.34 1.85 1.85 0 00-.32.51 1.66 1.66 0 00-.12.64v4H80v-4.38a2 2 0 00-.08-.6 1.15 1.15 0 00-.22-.38.83.83 0 00-.3-.2.89.89 0 00-.3-.06 1.18 1.18 0 00-.58.16 2 2 0 00-.47.41 2 2 0 00-.31.55 1.54 1.54 0 00-.12.57v3.92h-1.5v-6.53h1.48v.49a2.32 2.32 0 01.84-.46 3.15 3.15 0 01.87-.14 2.19 2.19 0 01.91.2 1.93 1.93 0 01.77.65 2.38 2.38 0 01.45-.39 2.49 2.49 0 01.51-.27 2.72 2.72 0 01.54-.15A2.59 2.59 0 0183 47zm-3.27-23.7c-.06-.53.42-1.64 1.45-3.33.07.13.21 2.2.4 6.19l.26 6.12a10.48 10.48 0 01-.9 3.3q-.4-5.05-1.18-12.25zm-3.75.4v1a9.13 9.13 0 01-.78 3.59 10.52 10.52 0 01-.72 1.32 4.27 4.27 0 00-.46.8 20.51 20.51 0 01.78 2.74 4.22 4.22 0 01.06.64c0 .8-.37 1.2-1.1 1.2h-5.53l.34-2a7.61 7.61 0 002.55-1.56c1-.83 1.53-1.34 1.53-1.51a6.59 6.59 0 00-1.45-2.15 24.46 24.46 0 00-2.3-2.48c-.07.24-.17.59-.31 1-1.24-.83-2-1.36-2.3-1.61a2.37 2.37 0 01-1-1.66c0-1.52.2-2.28.71-2.28a3.94 3.94 0 011.31.75 18 18 0 012.86 2.63 23.62 23.62 0 013.38 5 2.73 2.73 0 00.76-.91 3.92 3.92 0 00.56-1.54 4.68 4.68 0 000-.59 19.25 19.25 0 00-.51-3.43 3.73 3.73 0 01-.67-.82 2.08 2.08 0 01.57-1.5c.46-.63.7-.89.71-.78a3 3 0 00.84 1.45 3.23 3.23 0 001.45.95c.08 0-.06.27-.43.72-.18.24-.46.59-.83 1.06zm-2.68 7.17a6.53 6.53 0 01-1.92 1.56 12.24 12.24 0 01-1.31.74c0 .13.36.19 1.08.19s1.61 0 2.73-.16a6.08 6.08 0 00-.58-2.33zm-6.8 14.36a3.46 3.46 0 01.84 1 5.18 5.18 0 01.52 1.2h-1.54a3.25 3.25 0 00-1-1.47 2.38 2.38 0 00-1.55-.49 2.09 2.09 0 00-1.1.3 2.78 2.78 0 00-.86.78 3.85 3.85 0 00-.56 1.15 4.54 4.54 0 00-.2 1.39 5.85 5.85 0 00.23 1.71A3.78 3.78 0 0062 52a2.44 2.44 0 00.88.7 2.19 2.19 0 001 .24 2.05 2.05 0 00.93-.21 2.51 2.51 0 00.74-.55 3.09 3.09 0 00.52-.79 3.66 3.66 0 00.3-.9h1.51a5.19 5.19 0 01-.46 1.36 4 4 0 01-.83 1.11 3.65 3.65 0 01-1.19.75 4.07 4.07 0 01-1.52.27 4.44 4.44 0 01-1.75-.33 3.67 3.67 0 01-1.34-1 4.37 4.37 0 01-.85-1.55 6.61 6.61 0 01-.3-2.06 5.84 5.84 0 01.13-1.18 5.22 5.22 0 01.38-1.09 4.52 4.52 0 01.61-.95 4 4 0 01.83-.76 3.68 3.68 0 011-.49 4.13 4.13 0 011.24-.18 4.72 4.72 0 011.52.22 3.65 3.65 0 011.15.62zm-3.58-10.37h-3.24a.69.69 0 01-.41-.4l-.16-.32a8.08 8.08 0 01-.81.72h-5.79a5.51 5.51 0 00-.34-.63 2 2 0 01-.41.27 2.43 2.43 0 01-.91.36h-4a1.35 1.35 0 01-.78-.26 1.43 1.43 0 01-.32-.48 1.36 1.36 0 00-.25-.41c-.07 0-.22.19-.45.58s-.39.57-.51.57h-4.47a1.34 1.34 0 01-.77-.26 1.41 1.41 0 01-.33-.48c-.12-.26-.2-.39-.25-.41s-.22.19-.44.58-.4.57-.51.57h-8.21L29 36.12l-4.83-2.64c-.21 0-.43.23-.67.69s-.49.69-.78.69h-9.65q-.37-6.91-1-13.17L13.36 20l.64 7.24a44.81 44.81 0 00.62 5.21 1.08 1.08 0 00.17.19 1.35 1.35 0 001 .3h7.07c.41 0 .73-.3.94-.89a7.55 7.55 0 01.65-1.48 10.63 10.63 0 011.75-1.27 4.3 4.3 0 012-.71c.33 0 .49.15.49.46a5.14 5.14 0 010 .8c.51 1.95 1.15 3 1.94 3.12h8.31l.06-2.56a26.4 26.4 0 011.74-2.09v.22a21.81 21.81 0 01-.43 3.61c-.06.36-.08.55-.08.57s.15.22.38.22h5.1v-2.53c.43-.58 1-1.27 1.74-2.09v.22a23 23 0 01-.43 3.61 2.75 2.75 0 00-.08.57c0 .14.14.22.38.22h4.28c.36 0 .57-.25.64-.73v-1.1L54 29.26a10.94 10.94 0 01-.83 3.68h5.47c.07 0 .1-.42.1-1.38 0-.44.61-1.14 1.82-2.09-.15.57-.41 1.61-.77 3.11-.08.25.58.37 2 .37h.81a18.54 18.54 0 00-.41-1.86c-.06-.13.13-.42.57-.88a8.39 8.39 0 00.94-1.07v2.79a6.3 6.3 0 01-.33 2 2.8 2.8 0 01-.45.93zm-34.79-3.24q-.27-1.05-.93-1.05a2.36 2.36 0 00-2.12 1.07l1.33.76a4.37 4.37 0 001.43.62l.59-.12c-.12-.57-.22-1-.3-1.28zm16-6.79L43.48 26l-2.2-1.28.91-1.59 2.09 1.31.7-1.17 2.23 1.32-.92 1.52zm-6.8.16l-.67 1.18-2.23-1.31.93-1.56 2.07 1.3.72-1.18 2.2 1.33-.9 1.51zm-2.43-3.32l.93-1.5 2.1 1.29L37 23zm-25 25.48h1.49v6.53H9.87zm0-2.52h1.49v1.29H9.87zm-5.09-4.22a9.49 9.49 0 01-2.74-.71C.69 39.17 0 38.74 0 38.4a.14.14 0 01.16-.16 10.15 10.15 0 011.21.46 5.24 5.24 0 001.8.46c1 0 2.19-.68 3.59-2s2.09-2.51 2.09-3.5c0-.71-.85-1.69-2.55-2.92q.15-.63.51-2.31a7.67 7.67 0 011.91 2 6.66 6.66 0 01.85 3.53 7.77 7.77 0 01-1.63 4.38c-1 1.36-2.04 2.07-3.13 2.07zm-.48 11l2.61-6.81h1.74v9H7.17v-6.16l-2.39 6.24h-1L1.5 47.44v6.24H0v-9h1.74zm9.59-3.77a3.17 3.17 0 01.93-.48 3.49 3.49 0 011-.16 2.87 2.87 0 01.92.14 2 2 0 01.69.4 1.52 1.52 0 01.42.63A2.14 2.14 0 0118 49v4.65h-1.44v-4.5a1.21 1.21 0 00-.23-.83.87.87 0 00-.65-.25 1.57 1.57 0 00-.68.15 1.73 1.73 0 00-.57.38 1.79 1.79 0 00-.37.54 1.61 1.61 0 00-.14.64v3.9h-1.5v-6.53h1.5zm6.77-1.76h-1.48v-1.25h1.48zm0 7.76h-1.48v-6.49h1.48zm2.69-1.58a1.44 1.44 0 00.25.4.91.91 0 00.37.21 1.35 1.35 0 00.46.07 2.25 2.25 0 00.44 0 1.23 1.23 0 00.42-.14.91.91 0 00.31-.27.7.7 0 00.13-.44.68.68 0 00-.12-.4 1.08 1.08 0 00-.31-.29 2.8 2.8 0 00-.46-.22l-.54-.2-.84-.3a3.78 3.78 0 01-.75-.39 2 2 0 01-.55-.54 1.36 1.36 0 01-.21-.77 1.41 1.41 0 01.21-.77 1.64 1.64 0 01.54-.54 2.73 2.73 0 01.8-.32 4.15 4.15 0 011.94 0 2.39 2.39 0 01.83.35 1.75 1.75 0 01.55.6 1.93 1.93 0 01.23.87h-1.49a1.21 1.21 0 00-.14-.43.85.85 0 00-.25-.28.94.94 0 00-.34-.14 1.68 1.68 0 00-.4 0 1.16 1.16 0 00-.72.2.68.68 0 00-.14.9 1.26 1.26 0 00.32.28 2.82 2.82 0 00.46.23l.54.2.84.32a3.76 3.76 0 01.75.38 2.09 2.09 0 01.55.51 1.17 1.17 0 01.2.69 1.69 1.69 0 01-.23.93 1.75 1.75 0 01-.61.63 3 3 0 01-.9.36 5.14 5.14 0 01-1.06.11 3.82 3.82 0 01-1-.14 2.62 2.62 0 01-.85-.43 2.08 2.08 0 01-.59-.72 2.24 2.24 0 01-.24-1h1.53a1.63 1.63 0 00.07.53zm5.36-6.83h1.5v1.88h1v1h-1v4a.74.74 0 00.12.49.38.38 0 00.3.13h.23l.49-.09v1a5.59 5.59 0 01-.56.12 3.37 3.37 0 01-.52 0 2.35 2.35 0 01-.6-.07 1.43 1.43 0 01-.5-.23 1 1 0 01-.33-.41 1.32 1.32 0 01-.13-.62v-4.26h-1v-1h1zm4.89 2.47a1.82 1.82 0 01.63-.51A1.61 1.61 0 0135 47a1.53 1.53 0 01.33 0 2.72 2.72 0 01.38.11v1.22a3.91 3.91 0 00-.73-.23 1.05 1.05 0 00-.54.13 1.25 1.25 0 00-.41.35 1.52 1.52 0 00-.25.51 2 2 0 00-.09.6v3.91h-1.48v-6.45h1.34zm3.84-.59l1.53 4.5 1.54-4.46h1.54L39.32 55a2.55 2.55 0 01-.34.66 1.85 1.85 0 01-.43.45 2 2 0 01-.48.25 1.58 1.58 0 01-.47.07h-.43a3 3 0 01-.53-.16v-1.1l.23.09.24.09.22.07h.14a.24.24 0 00.17-.1 1 1 0 00.14-.23 2.55 2.55 0 00.13-.29 2.13 2.13 0 00.09-.27l.28-.89-2.4-6.5zm8.65.88a2.75 2.75 0 011-.72 3.18 3.18 0 011.32-.27 3.27 3.27 0 011.36.27 3 3 0 011 .72 3.37 3.37 0 01.61 1.08 4.22 4.22 0 010 2.63 3.32 3.32 0 01-.61 1.07 2.88 2.88 0 01-1 .72 3.27 3.27 0 01-1.36.27 3.18 3.18 0 01-1.34-.27 2.63 2.63 0 01-1-.72 3.14 3.14 0 01-.61-1.07 4.22 4.22 0 010-2.63 3.19 3.19 0 01.63-1.07zm.78 3.3a2.64 2.64 0 00.33.74 1.58 1.58 0 00.53.5 1.3 1.3 0 00.68.18 1.34 1.34 0 00.69-.18 1.68 1.68 0 00.53-.5 2.64 2.64 0 00.33-.74 3.34 3.34 0 00.12-.91 3.39 3.39 0 00-.12-.91 2.64 2.64 0 00-.33-.74 1.61 1.61 0 00-.53-.51 1.35 1.35 0 00-.69-.19 1.31 1.31 0 00-.68.19 1.52 1.52 0 00-.53.51 2.64 2.64 0 00-.33.74 3.84 3.84 0 00-.11.91 3.78 3.78 0 00.11.95zm6.44-5.63a1.32 1.32 0 01.11-.53 1.34 1.34 0 01.33-.42 1.56 1.56 0 01.51-.28 2.07 2.07 0 01.68-.1 1.72 1.72 0 01.51.09 2.53 2.53 0 01.56.25v1l-.53-.21a1 1 0 00-.23-.08.46.46 0 00-.31.1.49.49 0 00-.12.36v1.27H56v1.09h-1.1v5.48h-1.56V48.2h-1.08v-1.05h1.08zM69.61 48a2.84 2.84 0 011-.72 3.51 3.51 0 012.7 0 2.82 2.82 0 011 .72 3.19 3.19 0 01.61 1.08 4.22 4.22 0 010 2.63 3.14 3.14 0 01-.61 1.07 2.7 2.7 0 01-1 .72 3.51 3.51 0 01-2.7 0 2.72 2.72 0 01-1-.72 3.32 3.32 0 01-.61-1.04 4.42 4.42 0 010-2.63 3.37 3.37 0 01.61-1.11zm.79 3.3a2.17 2.17 0 00.33.74 1.55 1.55 0 00.52.5 1.39 1.39 0 001.37 0 1.68 1.68 0 00.53-.5 2.65 2.65 0 00.34-.74 3.34 3.34 0 00.11-.91 3.39 3.39 0 00-.11-.91 2.65 2.65 0 00-.34-.74 1.61 1.61 0 00-.53-.51 1.33 1.33 0 00-1.37 0 1.49 1.49 0 00-.52.51 2.17 2.17 0 00-.33.74 3.39 3.39 0 00-.12.91 3.34 3.34 0 00.12.94zm34.89-3.59a1.82 1.82 0 01.63-.51 1.61 1.61 0 01.76-.19 1.52 1.52 0 01.32 0 2.85 2.85 0 01.39.11v1.22a4.14 4.14 0 00-.74-.23 1.08 1.08 0 00-.54.13 1.25 1.25 0 00-.41.35 1.52 1.52 0 00-.25.51 2.35 2.35 0 00-.08.6v3.91h-1.49v-6.46h1.33zm3.65.25a2.81 2.81 0 011-.69 3.05 3.05 0 011.26-.26 3.41 3.41 0 011.11.17 2.7 2.7 0 01.83.48 2.48 2.48 0 01.58.71 3.4 3.4 0 01.33.91h-1.55a2 2 0 00-.5-1 1.21 1.21 0 00-.81-.28 1.28 1.28 0 00-.67.19 1.5 1.5 0 00-.48.49 2.19 2.19 0 00-.31.71 3.36 3.36 0 00-.1.85 3.91 3.91 0 00.1.91 2.66 2.66 0 00.27.85 1.72 1.72 0 00.48.55 1 1 0 00.64.21 1 1 0 00.49-.12 1.19 1.19 0 00.38-.33 1.73 1.73 0 00.28-.48 3.66 3.66 0 00.17-.59H114a3.57 3.57 0 01-.3 1.08 2.88 2.88 0 01-.61.81 2.46 2.46 0 01-.88.5 3.41 3.41 0 01-1.14.18 2.71 2.71 0 01-1.34-.31 2.93 2.93 0 01-.93-.82 3.4 3.4 0 01-.53-1.12 4.55 4.55 0 01-.18-1.25 3.64 3.64 0 01.22-1.29 3.09 3.09 0 01.63-1.02zm16.54 2.7a2.61 2.61 0 01.66-.36c.25-.09.51-.17.76-.24l.76-.19a4.87 4.87 0 00.67-.2 1.63 1.63 0 00.47-.28.53.53 0 00.2-.39.78.78 0 00-.33-.71 1.6 1.6 0 00-.92-.23 1.49 1.49 0 00-.43.06 1 1 0 00-.36.17 1.08 1.08 0 00-.26.3 1.46 1.46 0 00-.15.46H125a1.82 1.82 0 01.29-.91 2.14 2.14 0 01.65-.62 2.87 2.87 0 01.86-.37 3.93 3.93 0 01.95-.12 4.9 4.9 0 011 .11 3 3 0 01.87.34 2.09 2.09 0 01.61.61 1.78 1.78 0 01.23.91v3.33a.73.73 0 00.05.3c0 .1.08.14.12.14a4.91 4.91 0 00.59-.18v1l-.51.13a1.9 1.9 0 01-.41 0 1.28 1.28 0 01-.71-.19 1.15 1.15 0 01-.45-.6 3.46 3.46 0 01-.52.4 2.48 2.48 0 01-.53.24 2.57 2.57 0 01-.55.12h-.57a2.55 2.55 0 01-.84-.13 2.26 2.26 0 01-.69-.36 1.71 1.71 0 01-.45-.58 1.74 1.74 0 01-.17-.77 1.5 1.5 0 01.18-.76 1.79 1.79 0 01.48-.4zm.91 1.66a.6.6 0 00.18.25.73.73 0 00.26.14 1 1 0 00.29 0 1.74 1.74 0 001-.33 3 3 0 00.87-1v-.98a1.81 1.81 0 01-.44.19l-.56.17-.59.18a2.36 2.36 0 00-.53.24 1.24 1.24 0 00-.39.32.67.67 0 00-.14.45 1 1 0 00.05.4zm8.09-13.52l.93-1.48 2.09 1.24-.93 1.55zm-.78 8.85a3 3 0 01.92-.48 3.61 3.61 0 011-.16 2.91 2.91 0 01.92.14 1.83 1.83 0 01.68.4 1.65 1.65 0 01.43.63 2.14 2.14 0 01.15.82v4.65h-1.49v-4.5a1.16 1.16 0 00-.23-.83.85.85 0 00-.64-.25 1.65 1.65 0 00-.69.15 1.79 1.79 0 00-.56.38 1.83 1.83 0 00-.38.54 1.59 1.59 0 00-.13.64v3.9h-1.51v-6.53h1.51zm5.8.35a2.49 2.49 0 01.91-.72 2.74 2.74 0 011.25-.27 2.26 2.26 0 01.77.16 3.33 3.33 0 01.74.41v-3h1.49v9h-1.49v-.4a2.7 2.7 0 01-.7.4 2.39 2.39 0 01-.79.14 3 3 0 01-1.26-.26 2.7 2.7 0 01-.91-.73 3.12 3.12 0 01-.56-1.07 4.93 4.93 0 010-2.64 3.2 3.2 0 01.55-1.02zm.87 3.32a2.79 2.79 0 00.28.74 1.48 1.48 0 00.46.5 1.14 1.14 0 001.23 0 1.46 1.46 0 00.45-.5 2.48 2.48 0 00.28-.74 3.87 3.87 0 00.1-.92v-.1a4.15 4.15 0 00-.12-.88 2.39 2.39 0 00-.28-.71 1.42 1.42 0 00-.45-.49 1 1 0 00-.6-.18 1.1 1.1 0 00-.61.19 1.43 1.43 0 00-.46.51 2.86 2.86 0 00-.28.75 4.37 4.37 0 00-.1.91 4.47 4.47 0 00.1.95zm9.85 2.33h-1.51v-9h1.51zm22.95-1.58a1.44 1.44 0 00.25.4.85.85 0 00.37.21 1.35 1.35 0 00.46.07 2.32 2.32 0 00.44 0 1.23 1.23 0 00.42-.14 1 1 0 00.31-.27.76.76 0 00.13-.44.68.68 0 00-.12-.4 1.12 1.12 0 00-.32-.29 2.36 2.36 0 00-.45-.22l-.54-.2-.84-.3a3.78 3.78 0 01-.75-.39 1.89 1.89 0 01-.55-.54 1.36 1.36 0 01-.21-.77A1.5 1.5 0 01172 48a1.77 1.77 0 01.55-.54 2.79 2.79 0 01.79-.32 4.1 4.1 0 01.94-.11 4.05 4.05 0 011 .12 2.34 2.34 0 01.82.35 1.78 1.78 0 01.56.6 1.93 1.93 0 01.22.87h-1.49a1 1 0 00-.13-.43.85.85 0 00-.25-.28.94.94 0 00-.34-.14 1.68 1.68 0 00-.4 0 1.12 1.12 0 00-.72.2.65.65 0 00-.26.53.59.59 0 00.12.37 1.26 1.26 0 00.32.28 2.47 2.47 0 00.46.23l.54.2.84.32a4.05 4.05 0 01.75.38 2.2 2.2 0 01.54.51 1.17 1.17 0 01.21.69 1.78 1.78 0 01-.23.93 1.84 1.84 0 01-.61.63 3 3 0 01-.9.36 5.24 5.24 0 01-1.07.11 3.75 3.75 0 01-1-.14 2.62 2.62 0 01-.85-.43 2.08 2.08 0 01-.59-.72 2.38 2.38 0 01-.25-1h1.54a1.63 1.63 0 00.06.53zm5.36-6.83H180v1.88h1v1h-1v4a.74.74 0 00.12.49.38.38 0 00.3.13h.23l.48-.09v1a4.88 4.88 0 01-.55.12 3.49 3.49 0 01-.53 0 2.27 2.27 0 01-.59-.07 1.43 1.43 0 01-.5-.23 1.15 1.15 0 01-.34-.41 1.46 1.46 0 01-.12-.62v-4.27h-1v-1h1zM193.19 48a3.05 3.05 0 011-.72 3.11 3.11 0 011.32-.27 3.28 3.28 0 011.28.24 2.76 2.76 0 011 .67 3 3 0 01.62 1 3.62 3.62 0 01.21 1.26v.48h-4.7a2.91 2.91 0 00.15.78 2.53 2.53 0 00.36.67 1.82 1.82 0 00.5.46 1.29 1.29 0 00.63.17 1.61 1.61 0 001.57-1.26h1.39a2.8 2.8 0 01-.4 1 2.6 2.6 0 01-.68.72 2.82 2.82 0 01-.88.45 3.37 3.37 0 01-1 .15 3 3 0 01-2.32-1 3.79 3.79 0 01-.64-1.11 4.17 4.17 0 01-.22-1.33 3.69 3.69 0 01.22-1.25 3.27 3.27 0 01.59-1.11zm3.86 1.73a2.41 2.41 0 00-.13-.67 1.59 1.59 0 00-.33-.53 1.64 1.64 0 00-.5-.36 1.67 1.67 0 00-.65-.13 1.39 1.39 0 00-.6.14 1.55 1.55 0 00-.48.37 1.63 1.63 0 00-.33.54 1.76 1.76 0 00-.15.64zm4-2.08a3 3 0 01.92-.48 3.51 3.51 0 011-.16 2.91 2.91 0 01.92.14 1.91 1.91 0 01.68.4 1.65 1.65 0 01.43.63 2.14 2.14 0 01.14.82v4.65h-1.48v-4.5a1.21 1.21 0 00-.23-.83.87.87 0 00-.64-.25 1.58 1.58 0 00-.69.15 1.68 1.68 0 00-.56.38 1.83 1.83 0 00-.38.54 1.59 1.59 0 00-.13.64v3.9h-1.51v-6.53h1.51zm21.47 23.38c9-1.92 21.95-3 35.38-3S284 69.12 293 71l-3 2.94c-8.76-1.85-21.41-3-35.48-3s-26.71 1.18-35.48 3l2.75-2.74z" fill="#fff" fill-rule="evenodd" data-name="Layer 1"/></g></svg>