<svg xmlns="http://www.w3.org/2000/svg" viewBox="0 0 76 50.84" width="92" height="62"><defs><style>.cls-1{fill:#fff}</style></defs><g id="Layer_2" data-name="Layer 2"><g id="Layer_1-2" data-name="Layer 1"><g id="g302"><g id="g36"><path id="rect2" class="cls-1" d="M44.77.92h.85v.85h-.85z"/><path id="rect4" class="cls-1" d="M62.54 11.53h.85v.85h-.85z"/><path id="path6" class="cls-1" d="M72.93 10.61a1.25 1.25 0 00.51-.43 1.73 1.73 0 00.27-.68 4.19 4.19 0 00.08-.9v-6h-.85v6a3.59 3.59 0 010 .61 1.1 1.1 0 01-.13.41.56.56 0 01-.24.22 1 1 0 01-.4.07h-.21l-.23-.06-.23.83a2.86 2.86 0 00.7.09 1.79 1.79 0 00.73-.16z"/><path id="path8" class="cls-1" d="M70 1.12h-1.18v-.2a.37.37 0 01.07-.25.33.33 0 01.26-.08h.59V0h-.6a1.06 1.06 0 00-.76.26 1.12 1.12 0 00-.26.82v.69H70v-.65z"/><path id="rect10" class="cls-1" d="M60.83 11.53h.85v.85h-.85z"/><path id="rect12" class="cls-1" d="M46.48.92h.85v.85h-.85z"/><path id="path14" class="cls-1" d="M66.14 7.74a3.43 3.43 0 001.13.51 5.45 5.45 0 001.36.17h.22l.29-.61v.85a1.13 1.13 0 01-.38 1 1.8 1.8 0 01-1.08.29 3 3 0 01-.68-.12 4.53 4.53 0 01-.73-.25l-.27.82a8.19 8.19 0 00.87.27 3.29 3.29 0 00.76.09 2.44 2.44 0 001.82-.59A2.19 2.19 0 0070 8.58V2.63h-1.37a4.35 4.35 0 00-1.44.22 3.44 3.44 0 00-1.12.61 2.72 2.72 0 00-1 2.1 2.82 2.82 0 00.28 1.29 2.55 2.55 0 00.79.89zm0-3a2.14 2.14 0 01.53-.66 2.34 2.34 0 01.74-.42 2.4 2.4 0 01.84-.15h1.38l-.49.24v3.81h-.87a2.92 2.92 0 01-.9-.13 2.27 2.27 0 01-.74-.43 1.82 1.82 0 01-.5-.63 1.93 1.93 0 01-.13-.81 1.79 1.79 0 01.14-.84z"/><path id="path16" class="cls-1" d="M45 10.64h1.78V10a.73.73 0 000 .09 1.28 1.28 0 00.51.44 2 2 0 00.78.14H63.7v-8h-.86v7.15H48.15a.9.9 0 01-.4-.07.49.49 0 01-.25-.22 1.24 1.24 0 01-.13-.41 5.16 5.16 0 010-.61V2.63H45a3.92 3.92 0 00-4 4 3.88 3.88 0 004 4.01zm-3-4a3.05 3.05 0 013-3.18h2l-.52.27v4.78a4.94 4.94 0 00.08.9 2.42 2.42 0 00.13.43H45a3.08 3.08 0 01-3-3.21z"/><path id="polygon18" class="cls-1" d="M36.78 8.53l.37.98-5.42-6.89h-.85v8.01h.88V4.59l-.5-1.17 5.68 7.21h.72V2.62h-.88v5.91z"/><path id="path20" class="cls-1" d="M49 23.42l4.93-4.69v-3.22H40.71v3.66h6.75L50 17.56l-6.25 6.28.67 2.72h1.78c2.39 0 3.81.89 3.81 2.48v.05c0 1.45-1.14 2.36-2.75 2.36a6 6 0 01-4.71-2.33l-3 2.8a9.44 9.44 0 007.6 3.37c4.34 0 7-2.7 7-6.37v-.05c.03-3.61-2.55-5-5.15-5.45z"/><path id="path22" class="cls-1" d="M25.31 2.48a4.06 4.06 0 00-4.1 4.14 4.09 4.09 0 108.18 0 4 4 0 00-4.08-4.14zm3.14 4.16a3.15 3.15 0 01-3.14 3.29 3.19 3.19 0 01-3.16-3.31 3.15 3.15 0 013.14-3.28 3.18 3.18 0 013.16 3.3z"/><path id="path24" class="cls-1" d="M65.67 15.17a10.07 10.07 0 00-10.38 10.06v.05a10 10 0 0010.33 10A10.07 10.07 0 0076 25.23v-.06a10 10 0 00-10.33-10zm5.85 10.11a5.83 5.83 0 01-5.85 6.06 5.91 5.91 0 01-5.9-6.11v-.06a5.82 5.82 0 015.85-6.05 5.91 5.91 0 015.9 6.11z"/><path id="rect26" class="cls-1" d="M18.74 2.62h.91v8.01h-.91z"/><path id="path28" class="cls-1" d="M4.19 32.73l.81-.64 4.26-3.28c3.45-2.66 5.12-4.28 5.12-7.53v-.05c0-3.64-2.67-6-6.71-6-3.48 0-5.34 1.41-7.26 4l3 2.41c1.45-1.78 2.48-2.61 4-2.61A2.39 2.39 0 0110 21.59c0 1.61-.95 2.67-3.37 4.67l-6.45 5.3V35H14.6v-3.74H7.17z"/><path id="polygon30" class="cls-1" d="M4.25 10.68L7.7 2.62h-.97L4 9.18l.09.88-.23-.54L1.5 3.81l-.49-1.19H0l3.45 8.06h.8z"/><path id="rect32" class="cls-1" d="M8.93 2.62h.91v8.01h-.91z"/><path id="path34" class="cls-1" d="M14.63 6.19c-1.76-.38-2.17-.8-2.17-1.56 0-.72.66-1.29 1.7-1.29a3.56 3.56 0 012.32.86l.52-.71a4.17 4.17 0 00-2.82-1 2.37 2.37 0 00-2.64 2.19c0 1.32.85 1.91 2.69 2.31s2.09.78 2.09 1.52c0 .79-.71 1.36-1.79 1.36a3.85 3.85 0 01-2.74-1.07l-.56.66a4.69 4.69 0 003.28 1.28c1.59 0 2.74-.89 2.74-2.26 0-1.25-.83-1.9-2.62-2.29z"/></g><path id="polygon38" class="cls-1" d="M26.24 13.89l.99.95-.95.98-.98-.94.94-.99z"/><path id="polygon40" class="cls-1" d="M28.5 14.88l.99.94.95-.98-.99-.95-.95.99z"/><path id="polygon42" class="cls-1" d="M27.11 16.12l.77.74.74-.77-.77-.74-.74.77z"/><path id="polygon44" class="cls-1" d="M29.93 16.54l.77.74.73-.77-.76-.74-.74.77z"/><path id="polygon46" class="cls-1" d="M25.86 17.29l.76.74.74-.77-.77-.74-.73.77z"/><path id="polygon48" class="cls-1" d="M28.43 17.38l.77.74.74-.77-.77-.74-.74.77z"/><path id="polygon50" class="cls-1" d="M27.43 18.26l.54.52.51-.54-.53-.52-.52.54z"/><path id="polygon52" class="cls-1" d="M29.46 18.67l.54.52.52-.54-.54-.52-.52.54z"/><path id="rect54" class="cls-1" transform="rotate(-10.39 34.876 15.259)" d="M34.06 14.4h1.7v1.7h-1.7z"/><path id="rect56" class="cls-1" transform="rotate(-10.38 32.529 15.83)" d="M31.84 15.13h1.37v1.37h-1.37z"/><path id="rect58" class="cls-1" transform="rotate(-10.39 35.156 17.668)" d="M34.44 17h1.37v1.37h-1.37z"/><path id="rect60" class="cls-1" transform="rotate(-10.38 33.074 17.768)" d="M32.56 17.23h1.06v1.06h-1.06z"/><path id="rect62" class="cls-1" transform="rotate(-10.38 35.116 19.73)" d="M34.6 19.22h1.06v1.06H34.6z"/><path id="rect64" class="cls-1" transform="rotate(-10.38 31.538 18.183)" d="M30.99 17.65h1.07v1.06h-1.07z"/><path id="rect66" class="cls-1" transform="rotate(-10.38 33.41 19.574)" d="M32.89 19.02h1.06v1.06h-1.06z"/><path id="rect68" class="cls-1" transform="rotate(-10.39 31.881 19.533)" d="M31.53 19.18h.75v.75h-.75z"/><path id="rect70" class="cls-1" transform="matrix(.98 -.18 .18 .98 -3.25 6.33)" d="M32.95 20.7h.75v.75h-.75z"/><path id="polygon72" class="cls-1" d="M38.9 20.05l-.73 1.54 1.54.73.73-1.54-1.54-.73z"/><path id="polygon74" class="cls-1" d="M36.72 19.34l-.59 1.23 1.24.59.58-1.24-1.23-.58z"/><path id="polygon76" class="cls-1" d="M37.73 22.37l-.59 1.24 1.24.58.58-1.23-1.23-.59z"/><path id="polygon78" class="cls-1" d="M36.11 21.45l-.46.96.97.46.45-.96-.96-.46z"/><path id="polygon80" class="cls-1" d="M36.6 24.25l-.46.96.96.46.46-.96-.96-.46z"/><path id="polygon82" class="cls-1" d="M34.59 20.88l-.46.96.96.46.46-.96-.96-.46z"/><path id="polygon84" class="cls-1" d="M35.33 23.1l-.46.96.96.46.46-.97-.96-.45z"/><path id="polygon86" class="cls-1" d="M34.17 22.42l-.32.68.68.32.32-.68-.68-.32z"/><path id="rect88" class="cls-1" transform="rotate(-64.55 34.604 24.978)" d="M34.23 24.6h.75v.75h-.75z"/><path id="polygon90" class="cls-1" d="M39.73 27.41l-1.49.81.82 1.49 1.49-.81-.82-1.49z"/><path id="polygon92" class="cls-1" d="M38.38 25.55l-1.2.66.66 1.2 1.19-.66-.65-1.2z"/><path id="polygon94" class="cls-1" d="M37.42 28.61l-1.2.65.66 1.2 1.2-.66-.66-1.19z"/><path id="polygon96" class="cls-1" d="M36.65 26.91l-.94.51.52.93.93-.51-.51-.93z"/><path id="polygon98" class="cls-1" d="M35.4 29.47l-.93.51.51.93.93-.51-.51-.93z"/><path id="polygon100" class="cls-1" d="M35.75 25.56l-.94.51.52.93.93-.51-.51-.93z"/><path id="polygon102" class="cls-1" d="M35.05 27.79l-.94.51.51.93.94-.51-.51-.93z"/><path id="polygon104" class="cls-1" d="M34.5 26.57l-.65.36.36.65.65-.36-.36-.65z"/><path id="polygon106" class="cls-1" d="M33.5 28.39l-.65.36.36.65.65-.36-.36-.65z"/><path id="rect108" class="cls-1" transform="rotate(-82.96 35.14 34.594)" d="M34.29 33.74h1.7v1.7h-1.7z"/><path id="rect110" class="cls-1" transform="rotate(-82.93 35.32 32.157)" d="M34.63 31.47h1.36v1.37h-1.36z"/><path id="rect112" class="cls-1" transform="rotate(-82.93 32.752 34.07)" d="M32.07 33.39h1.37v1.37h-1.37z"/><path id="rect114" class="cls-1" transform="rotate(-82.95 33.288 32.115)" d="M32.75 31.59h1.06v1.06h-1.06z"/><path id="rect116" class="cls-1" transform="rotate(-82.95 30.777 33.463)" d="M30.24 32.93h1.06v1.06h-1.06z"/><path id="rect118" class="cls-1" transform="rotate(-82.93 33.35 30.497)" d="M32.82 29.96h1.06v1.07h-1.06z"/><path id="rect120" class="cls-1" transform="rotate(-82.93 31.473 31.892)" d="M30.94 31.36H32v1.07h-1.06z"/><path id="rect122" class="cls-1" transform="rotate(-82.95 31.923 30.445)" d="M31.55 30.08h.75v.75h-.75z"/><path id="rect124" class="cls-1" transform="rotate(-82.95 30.047 31.336)" d="M29.67 30.97h.75v.75h-.75z"/><path id="polygon126" class="cls-1" d="M29.36 36.96l-1.25-1.16-1.16 1.25 1.25 1.16 1.16-1.25z"/><path id="polygon128" class="cls-1" d="M29.13 13.13l-1.25-1.16-1.16 1.25 1.25 1.16 1.16-1.25z"/><path id="polygon130" class="cls-1" d="M30.69 35.09l-1-.93-.93 1 1 .93.93-1z"/><path id="polygon132" class="cls-1" d="M27.49 35.15l-1.01-.93-.93 1 1.01.93.93-1z"/><path id="polygon134" class="cls-1" d="M28.86 33.88l-.79-.72-.72.78.78.72.73-.78z"/><path id="polygon136" class="cls-1" d="M26.03 33.51l-.78-.73-.72.78.78.73.72-.78z"/><path id="polygon138" class="cls-1" d="M29.86 32.6l-.78-.72-.73.78.78.72.73-.78z"/><path id="polygon140" class="cls-1" d="M27.51 32.64l-.78-.72-.72.78.78.72.72-.78z"/><path id="polygon142" class="cls-1" d="M28.51 31.74l-.55-.51-.51.55.55.51.51-.55z"/><path id="polygon144" class="cls-1" d="M26.46 31.37l-.55-.51-.51.55.55.51.51-.55z"/><path id="rect146" class="cls-1" transform="rotate(-11.33 21.075 34.87)" d="M20.22 34.03h1.7v1.7h-1.7z"/><path id="rect148" class="cls-1" transform="rotate(-11.33 23.423 34.29)" d="M22.77 33.59h1.37v1.37h-1.37z"/><path id="rect150" class="cls-1" transform="rotate(-11.34 20.83 32.48)" d="M20.14 31.76h1.37v1.37h-1.37z"/><path id="rect152" class="cls-1" transform="rotate(-11.33 22.852 32.35)" d="M22.31 31.81h1.06v1.06h-1.06z"/><path id="rect154" class="cls-1" transform="rotate(-11.33 24.425 31.895)" d="M23.88 31.36h1.06v1.06h-1.06z"/><path id="rect156" class="cls-1" transform="rotate(-11.33 22.473 30.53)" d="M21.95 30.02h1.06v1.06h-1.06z"/><path id="rect158" class="cls-1" transform="rotate(-11.31 24.002 30.523)" d="M23.63 30.15h.75v.75h-.75z"/><path id="rect160" class="cls-1" transform="rotate(-11.34 22.596 29.045)" d="M22.19 28.66h.75v.75h-.75z"/><path id="polygon162" class="cls-1" d="M17 30.15l.71-1.55-1.55-.71-.71 1.55 1.55.71z"/><path id="polygon164" class="cls-1" d="M19.2 30.82l.57-1.24-1.25-.56-.57 1.24 1.25.56z"/><path id="polygon166" class="cls-1" d="M18.14 27.8l.56-1.24-1.24-.56-.57 1.24 1.25.56z"/><path id="rect168" class="cls-1" transform="rotate(-65.49 19.506 27.996)" d="M18.97 27.46h1.06v1.06h-1.06z"/><path id="polygon170" class="cls-1" d="M21.07 31.12l.44-.97-.97-.44-.44.97.97.44z"/><path id="rect172" class="cls-1" transform="rotate(-65.47 18.974 25.201)" d="M18.44 24.67h1.06v1.06h-1.06z"/><path id="rect174" class="cls-1" transform="rotate(-65.47 21.046 28.545)" d="M20.51 28.01h1.06v1.06h-1.06z"/><path id="rect176" class="cls-1" transform="rotate(-65.45 20.268 26.338)" d="M19.73 25.8h1.06v1.06h-1.06z"/><path id="polygon178" class="cls-1" d="M21.69 27.7l.31-.68-.68-.31-.31.68.68.31z"/><path id="polygon180" class="cls-1" d="M21.4 25.64l.31-.68-.68-.31-.31.68.68.31z"/><path id="polygon182" class="cls-1" d="M16.05 22.81l1.48-.85-.85-1.47-1.48.84.85 1.48z"/><path id="polygon184" class="cls-1" d="M17.44 24.64l1.18-.68-.67-1.19-1.19.68.68 1.19z"/><path id="polygon186" class="cls-1" d="M18.34 21.57l1.19-.68-.67-1.19-1.19.68.67 1.19z"/><path id="polygon188" class="cls-1" d="M19.14 23.25l.93-.53-.53-.92-.92.53.52.92z"/><path id="polygon190" class="cls-1" d="M20.35 20.67l.92-.52-.52-.93-.93.53.53.92z"/><path id="polygon192" class="cls-1" d="M20.07 24.59l.92-.53-.53-.92-.92.52.53.93z"/><path id="polygon194" class="cls-1" d="M20.73 22.34l.93-.52-.53-.93-.93.53.53.92z"/><path id="polygon196" class="cls-1" d="M21.29 23.56l.65-.37-.37-.65-.65.37.37.65z"/><path id="polygon198" class="cls-1" d="M22.26 21.72l.65-.37-.37-.65-.65.37.37.65z"/><path id="rect200" class="cls-1" transform="rotate(-83.9 20.52 15.537)" d="M19.67 14.69h1.7v1.7h-1.7z"/><path id="rect202" class="cls-1" transform="rotate(-83.89 20.389 17.98)" d="M19.7 17.3h1.36v1.37H19.7z"/><path id="rect204" class="cls-1" transform="rotate(-83.89 22.922 16.023)" d="M22.24 15.34h1.36v1.37h-1.36z"/><path id="rect206" class="cls-1" transform="rotate(-83.89 22.418 17.994)" d="M21.89 17.46h1.06v1.06h-1.06z"/><path id="rect208" class="cls-1" transform="rotate(-83.91 24.9 16.602)" d="M24.37 16.07h1.06v1.06h-1.06z"/><path id="rect210" class="cls-1" transform="rotate(-83.89 22.383 19.612)" d="M21.85 19.08h1.06v1.06h-1.06z"/><path id="rect212" class="cls-1" transform="rotate(-83.89 24.234 18.178)" d="M23.7 17.65h1.06v1.06H23.7z"/><path id="rect214" class="cls-1" transform="rotate(-83.89 23.809 19.636)" d="M23.43 19.26h.75v.75h-.75z"/><path id="rect216" class="cls-1" transform="rotate(-83.93 25.671 18.711)" d="M25.29 18.34h.75v.75h-.75z"/><path id="path218" class="cls-1" d="M33.3 26.14a3.06 3.06 0 00-.68-.3 4.14 4.14 0 00-1.86-.13 4.45 4.45 0 00-.8.2h-.08l-.43.19-.36.2a9 9 0 00-.81.56 17.24 17.24 0 01-.08-4.32c.64.41.46 1.54.32 1.86a2 2 0 00.25-2.25 2 2 0 01.29.3 1.69 1.69 0 01.36 1 2.05 2.05 0 010 .43V24a1.86 1.86 0 000-1.69 2 2 0 00-.36-.5c-.05 0-.09-.09-.15-.13h.14a1 1 0 01.36.19 1.46 1.46 0 01.51.68 1.79 1.79 0 01.12.62 1.56 1.56 0 00-.04-1.29 1.48 1.48 0 00-.51-.49 1.25 1.25 0 00-.36-.16.59.59 0 00-.17 0h.17a1.38 1.38 0 01.36 0 1.26 1.26 0 01.51.2 1.14 1.14 0 01.34.36 1 1 0 00-.35-.69 1.37 1.37 0 00-.51-.26 1.51 1.51 0 00-.36-.06 1.29 1.29 0 00-.45.08.86.86 0 01.46-.32.91.91 0 01.36 0 .7.7 0 01.3.07 1 1 0 00-.31-.25.81.81 0 00-.36-.12.91.91 0 00-.88.43c0-.07-.08-.16-.12-.24a3.13 3.13 0 01-.2-.66 2.52 2.52 0 01-.2.66.9.9 0 01-.12.24.93.93 0 00-1.6-.15 1 1 0 011.12.29 1.33 1.33 0 00-1.44.36 1 1 0 00-.23.57 1 1 0 01.22-.27 1.47 1.47 0 011.16-.31 1.55 1.55 0 00-1.16.93 1.62 1.62 0 000 1 1.55 1.55 0 011.13-1.51 1.88 1.88 0 00-.5 2.42 1.9 1.9 0 01.7-1.84 2 2 0 00.24 2.25c-.13-.33-.31-1.45.33-1.86a17.24 17.24 0 01-.08 4.32 6.67 6.67 0 00-1.6-.95l-.2-.07a4.22 4.22 0 00-1.51-.21 3.92 3.92 0 00-1.56.39l-.15.08h.14a4.43 4.43 0 013.07.25 8.11 8.11 0 011.8 1.18 18.84 18.84 0 01-1.8 1.53h-.06a.41.41 0 00-.43-.17.45.45 0 00-.32.31.42.42 0 00.09.37.59.59 0 00.72.1 9.69 9.69 0 002-1.66l.21-.18.2.18 1 .94c.12.12.25.22.36.32a4.26 4.26 0 00.51.35.66.66 0 00.8 0 .5.5 0 00.08-.37.32.32 0 00-.12-.2.45.45 0 00-.19-.11.43.43 0 00-.44.17L30 29a4.81 4.81 0 01-.51-.41l-.36-.32c-.25-.23-.52-.48-.81-.73a7.21 7.21 0 01.81-.62l.36-.23.51-.27a6 6 0 01.8-.31 4.59 4.59 0 012.53 0"/><g id="g300"><path id="rect220" class="cls-1" d="M3.96 44.67h.5v.5h-.5z"/><path id="path222" class="cls-1" d="M37.76 44.09v-3.32h-.49v2.83h-1.85v-2.83h-.49v2.83H33v-2.83h-.77a2.68 2.68 0 00-.83.13 1.88 1.88 0 00-.64.35 1.64 1.64 0 00-.41.53 1.58 1.58 0 00-.14.65 1.6 1.6 0 00.17.75 1.36 1.36 0 00.44.51 1.65 1.65 0 00.64.3 2.76 2.76 0 00.77.1zm-6.26-.57a1.22 1.22 0 01-.42-.23 1.12 1.12 0 01-.29-.36 1.31 1.31 0 01-.1-.5 1 1 0 01.11-.43 1.4 1.4 0 01.3-.38 1.6 1.6 0 01.92-.32h.48v2.3H32a1.72 1.72 0 01-.5-.08z"/><path id="rect224" class="cls-1" d="M27.3 39.71h.49v4.38h-.49z"/><path id="rect226" class="cls-1" d="M32.48 39.71h.5v.5h-.5z"/><path id="rect228" class="cls-1" d="M37.26 44.66h.5v.5h-.5z"/><path id="rect230" class="cls-1" d="M4.81 44.67h.5v.5h-.5z"/><path id="path232" class="cls-1" d="M25.38 43.6h-.8a1.54 1.54 0 01-.67-.12 1 1 0 01-.39-.37 2 2 0 00.05-.46v-1.57h-.49v1.65a1 1 0 01-.23.68.86.86 0 01-.68.25 1 1 0 01-.4-.07.83.83 0 01-.3-.18.86.86 0 01-.2-.27.76.76 0 01-.08-.33v-1.73h-.49v1.69a.86.86 0 01-.07.38.81.81 0 01-.18.26.87.87 0 01-.27.14 1 1 0 01-.31.05h-.95v-2.52h-.48v2.52h-2.57l.85-2a4.23 4.23 0 00-.41-.33c-.15-.1-.3-.18-.45-.26a3.06 3.06 0 00-.48-.17 1.49 1.49 0 00-.47-.07 1.53 1.53 0 00-.47.07A3.06 3.06 0 0014 41a3.47 3.47 0 00-.45.26l-.41.32.86 2.02h-1.7v-2.83h-.78a2.72 2.72 0 00-.83.13 2 2 0 00-.63.35 1.64 1.64 0 00-.42.53 1.73 1.73 0 000 1.41 1.36 1.36 0 00.44.51 1.87 1.87 0 00.64.29 2.88 2.88 0 00.78.1h.29v.14a.64.64 0 01-.22.55 1 1 0 01-.61.16 1.68 1.68 0 01-.41 0 2.32 2.32 0 01-.41-.15l-.16.47.5.16a2.2 2.2 0 00.44 0 1.37 1.37 0 001-.34 1.28 1.28 0 00.32-.91v-.09h7.6a1.24 1.24 0 00.64-.16 1.33 1.33 0 00.45-.4 1.16 1.16 0 00.48.45 1.49 1.49 0 00.73.17 1.73 1.73 0 00.75-.15 1.12 1.12 0 00.47-.47 1.3 1.3 0 00.15.2.71.71 0 00.23.18 1.34 1.34 0 00.34.13 1.78 1.78 0 00.35 0h1.41v-4.32h-.49v3.89zm-13.6 0h-.49a1.72 1.72 0 01-.52-.08 1.2 1.2 0 01-.42-.22 1 1 0 01-.29-.36 1.07 1.07 0 01-.11-.49 1 1 0 01.12-.48 1 1 0 01.3-.37 1.27 1.27 0 01.42-.25 1.69 1.69 0 01.5-.08h.49zm2.7 0l-.76-1.87a1.83 1.83 0 01.57-.35 1.88 1.88 0 01.62-.11 1.72 1.72 0 01.66.13 2.11 2.11 0 01.55.33l-.77 1.87z"/><path id="rect234" class="cls-1" d="M2.28 39.71h.5v.5h-.5z"/><path id="rect236" class="cls-1" d="M51.76 39.71h.5v.5h-.5z"/><path id="rect238" class="cls-1" d="M47.43 39.71h.49v4.38h-.49z"/><path id="rect240" class="cls-1" d="M31.63 39.71h.5v.5h-.5z"/><path id="path242" class="cls-1" d="M8.69 42.17a1.85 1.85 0 00-.08-.54 1.18 1.18 0 00-.23-.43 1.34 1.34 0 00-.44-.32 1.48 1.48 0 00-.59-.11H7v.49h.43a.73.73 0 01.33.08.79.79 0 01.27.2.74.74 0 01.14.28 1.28 1.28 0 010 .36v1.42H5.91v.49h2.78v-1.92z"/><path id="rect244" class="cls-1" d="M73.3 39.71h.49v4.38h-.49z"/><path id="rect246" class="cls-1" d="M52.61 39.71h.5v.5h-.5z"/><path id="path248" class="cls-1" d="M71.88 39.71h-.49v3.89h-1.68a1.72 1.72 0 00.15-.72 1.7 1.7 0 00-.14-.71 1.76 1.76 0 00-.37-.56 1.7 1.7 0 00-.57-.37 1.65 1.65 0 00-.7-.14 1.58 1.58 0 00-.69.14 1.64 1.64 0 00-.55.38 1.76 1.76 0 00-.37.56 1.82 1.82 0 00-.14.7 2.1 2.1 0 000 .37 1.79 1.79 0 00.11.35H65a1.58 1.58 0 00.16-.72 1.87 1.87 0 00-.14-.71 1.79 1.79 0 00-.38-.56 1.66 1.66 0 00-.56-.37 1.7 1.7 0 00-.71-.14 1.56 1.56 0 00-.68.14 1.68 1.68 0 00-.56.38 2 2 0 00-.37.56 1.82 1.82 0 00-.13.7 1.45 1.45 0 000 .37 1.3 1.3 0 00.11.35h-1.56v-3.89h-.49v3.89h-1.56v-.75a1.83 1.83 0 00-.07-.53 1.18 1.18 0 00-.23-.43 1.31 1.31 0 00-.43-.32 1.53 1.53 0 00-.61-.1h-2.16l.92-1.76H55l-.94 1.75a1 1 0 00.08.28.7.7 0 00.14.21h2.49a1 1 0 01.41.08.66.66 0 01.27.19.67.67 0 01.14.28 1.83 1.83 0 010 .35v.75h-4.47v-2.83h-.77a2.68 2.68 0 00-.83.13 1.88 1.88 0 00-.64.35 1.49 1.49 0 00-.4.53 1.44 1.44 0 00-.15.65 1.6 1.6 0 00.17.75 1.36 1.36 0 00.44.51 1.65 1.65 0 00.64.3 2.76 2.76 0 00.77.1h9.7a1.78 1.78 0 00.57.4 1.67 1.67 0 00.71.15 1.94 1.94 0 00.73-.14 1.89 1.89 0 00.59-.41h2.15a1.85 1.85 0 00.56.4 1.72 1.72 0 00.72.15 2 2 0 00.73-.14 1.85 1.85 0 00.58-.41h2.49v-4.38zM52.63 43.6h-.48a1.72 1.72 0 01-.52-.08 1.22 1.22 0 01-.42-.23 1.12 1.12 0 01-.29-.36 1.31 1.31 0 01-.1-.5 1.13 1.13 0 01.11-.48 1.52 1.52 0 01.3-.37 1.64 1.64 0 01.43-.24 1.62 1.62 0 01.49-.08h.48v2.34zm11.9-.22a1.2 1.2 0 01-.28.41 1.15 1.15 0 01-.41.26 1.25 1.25 0 01-.51.1 1.17 1.17 0 01-.89-.38 1.23 1.23 0 01-.27-.4 1.39 1.39 0 01-.09-.5 1.33 1.33 0 01.09-.49 1.31 1.31 0 01.26-.41 1.15 1.15 0 01.4-.28 1.18 1.18 0 01.5-.1 1.46 1.46 0 01.52.09 1.62 1.62 0 01.41.27 1.46 1.46 0 01.27.41 1.4 1.4 0 01.1.51 1.36 1.36 0 01-.1.51zm4.74 0a1.33 1.33 0 01-.27.41 1.36 1.36 0 01-.41.26 1.25 1.25 0 01-.51.1 1.18 1.18 0 01-.5-.1 1.15 1.15 0 01-.4-.28 1.31 1.31 0 01-.36-.9 1.36 1.36 0 01.36-.9 1.21 1.21 0 01.39-.28 1.19 1.19 0 01.51-.1 1.4 1.4 0 01.51.09A1.33 1.33 0 0169 42a1.13 1.13 0 01.27.41 1.22 1.22 0 01.1.51 1.19 1.19 0 01-.1.46z"/><path id="path250" class="cls-1" d="M1.25 44a2.76 2.76 0 00.77.1h3.2v-3.33h-.49v2.83H2.79v-2.83H2a2.68 2.68 0 00-.83.13 1.88 1.88 0 00-.64.35 1.64 1.64 0 00-.41.53 1.58 1.58 0 00-.14.65 1.6 1.6 0 00.17.75 1.36 1.36 0 00.44.51 1.65 1.65 0 00.66.31zm-.76-1.57A1.13 1.13 0 01.6 42a1.52 1.52 0 01.3-.37 1.64 1.64 0 01.43-.24 1.62 1.62 0 01.49-.08h.48v2.29h-.48a1.72 1.72 0 01-.52-.08 1.22 1.22 0 01-.42-.23 1.12 1.12 0 01-.29-.36 1.15 1.15 0 01-.1-.5z"/><path id="rect252" class="cls-1" d="M35.47 44.67h.5v.5h-.5z"/><path id="rect254" class="cls-1" d="M34.62 44.67h.5v.5h-.5z"/><path id="path256" class="cls-1" d="M39.66 44.71a2.78 2.78 0 00.05-.52v-.1H46v-4.38h-.49v3.89h-2.08l.86-2a3.39 3.39 0 00-.42-.33 4.83 4.83 0 00-.45-.26 2.64 2.64 0 00-.42-.21 1.58 1.58 0 00-.47-.07 1.59 1.59 0 00-.48.07 3 3 0 00-.47.17 2.51 2.51 0 00-.45.26 3.29 3.29 0 00-.41.33l.86 2h-1.87v-2.79h-.49v3.42a3.16 3.16 0 010 .35.79.79 0 01-.07.23.31.31 0 01-.15.13.46.46 0 01-.22 0h-.26l-.12.47a1.74 1.74 0 00.39 0 1 1 0 00.45-.09.67.67 0 00.29-.24 1.13 1.13 0 00.13-.33zm1.62-3a1.87 1.87 0 01.58-.35 1.84 1.84 0 01.62-.11 1.64 1.64 0 01.65.13 2 2 0 01.55.33l-.76 1.87H42z"/><path id="rect258" class="cls-1" d="M1.43 39.71h.5v.5h-.5z"/><path id="polygon260" class="cls-1" d="M3.51 47.3h-.76l-1.66 1.75V47.3H.48v3.48h.61v-1.01l.55-.56 1.19 1.57h.74L2.06 48.8l1.45-1.5z"/><path id="rect262" class="cls-1" d="M4.13 47.3h.61v3.49h-.61z"/><path id="polygon264" class="cls-1" d="M8.13 49.71L6.26 47.3h-.57v3.48h.61V48.3l1.92 2.48h.52V47.3h-.61v2.41z"/><path id="path266" class="cls-1" d="M11.28 49.37h.89V50a1.4 1.4 0 01-.84.26A1.16 1.16 0 0110.14 49a1.18 1.18 0 011.14-1.23 1.35 1.35 0 011 .37l.39-.46a1.9 1.9 0 00-1.34-.47A1.77 1.77 0 009.5 49a1.73 1.73 0 001.81 1.79 2.27 2.27 0 001.46-.54v-1.41h-1.49v.53z"/><path id="path268" class="cls-1" d="M14.92 47.3h-1.31v3.48h1.31A1.74 1.74 0 0016.77 49a1.73 1.73 0 00-1.85-1.7zm1.21 1.75a1.14 1.14 0 01-1.21 1.18h-.69v-2.38h.69A1.15 1.15 0 0116.13 49z"/><path id="path270" class="cls-1" d="M19.18 47.24A1.79 1.79 0 0017.35 49 1.83 1.83 0 0021 49a1.77 1.77 0 00-1.82-1.76zm1.18 1.81a1.18 1.18 0 01-1.18 1.23A1.2 1.2 0 0118 49a1.18 1.18 0 011.18-1.23A1.2 1.2 0 0120.36 49z"/><path id="polygon272" class="cls-1" d="M23.48 48.95l-1.06-1.65h-.65v3.48h.6v-2.49l1.09 1.64h.02l1.11-1.65v2.5h.61V47.3h-.65l-1.07 1.65z"/><path id="path274" class="cls-1" d="M29.27 47.24A1.79 1.79 0 0027.44 49a1.77 1.77 0 001.82 1.79A1.79 1.79 0 0031.1 49a1.77 1.77 0 00-1.83-1.76zm1.18 1.81a1.18 1.18 0 01-1.18 1.23A1.19 1.19 0 0128.09 49a1.17 1.17 0 011.17-1.23A1.19 1.19 0 0130.45 49z"/><path id="polygon276" class="cls-1" d="M31.86 50.78h.61v-1.42h1.76v-.55h-1.76v-.96h1.99v-.55h-2.6v3.48z"/><path id="path278" class="cls-1" d="M38 48.76c-.67-.16-.83-.28-.83-.55 0-.23.21-.41.57-.41a1.57 1.57 0 011 .36l.33-.47a2 2 0 00-1.27-.43 1.07 1.07 0 00-1.19 1c0 .64.42.86 1.16 1s.79.28.79.53c0 .27-.24.44-.62.44a1.58 1.58 0 01-1.1-.45l-.37.44a2.15 2.15 0 001.45.55c.74 0 1.25-.39 1.25-1-.07-.57-.45-.83-1.17-1.01z"/><path id="path280" class="cls-1" d="M41 47.27l-1.53 3.51h.63l.35-.84h1.66l.35.84h.65l-1.54-3.51zm-.32 2.13l.6-1.4.6 1.4z"/><path id="path282" class="cls-1" d="M45.83 49.3c0 .65-.34 1-.88 1s-.89-.35-.89-1v-2h-.61v2a1.38 1.38 0 001.49 1.54 1.4 1.4 0 001.5-1.57v-2h-.61v2z"/><path id="path284" class="cls-1" d="M48.64 47.3h-1.3v3.48h1.3A1.75 1.75 0 0050.5 49a1.74 1.74 0 00-1.86-1.7zm1.21 1.75a1.14 1.14 0 01-1.21 1.18H48v-2.38h.69A1.14 1.14 0 0149.85 49z"/><path id="rect286" class="cls-1" d="M51.28 47.3h.61v3.49h-.61z"/><path id="path288" class="cls-1" d="M55.56 47.27L54 50.78h.63l.36-.84h1.65l.36.84h.65l-1.54-3.51zm-.33 2.13l.6-1.4.61 1.4z"/><path id="path290" class="cls-1" d="M61.1 48.41a1 1 0 00-.29-.76 1.44 1.44 0 00-1-.34h-1.56v3.48h.61v-1.22h.77l.86 1.21h.72l-.94-1.32a1 1 0 00.83-1.05zm-2.24.59v-1.15h.89c.46 0 .73.21.73.58 0 .36-.28.58-.72.58z"/><path id="path292" class="cls-1" d="M63.2 47.27l-1.54 3.51h.63l.36-.84h1.65l.36.84h.65l-1.54-3.51zm-.33 2.13l.6-1.4.61 1.4z"/><path id="path294" class="cls-1" d="M68.1 49a.83.83 0 00.5-.78.78.78 0 00-.23-.57 1.28 1.28 0 00-.92-.31h-1.56v3.48h1.61c.78 0 1.3-.33 1.3-1a.86.86 0 00-.7-.82zm-1.61-1.13h.88c.4 0 .62.17.62.44 0 .32-.27.48-.66.48h-.84v-.93zm1.69 1.92c0 .32-.25.48-.67.48h-1v-1h1c.49 0 .72.18.72.47z"/><path id="rect296" class="cls-1" d="M69.56 47.3h.61v3.49h-.61z"/><path id="path298" class="cls-1" d="M72.86 47.27h-.57l-1.53 3.51h.62l.36-.84h1.66l.35.84h.65zM72 49.4l.6-1.4.6 1.4z"/></g></g></g></g></svg>